<?xml version="1.0" encoding="utf-8" standalone="no"?>
<!DOCTYPE svg PUBLIC "-//W3C//DTD SVG 1.1//EN"
  "http://www.w3.org/Graphics/SVG/1.1/DTD/svg11.dtd">
<svg xmlns:xlink="http://www.w3.org/1999/xlink" width="460.8pt" height="345.6pt" viewBox="0 0 460.8 345.6" xmlns="http://www.w3.org/2000/svg" version="1.1">
 <metadata>
  <rdf:RDF xmlns:dc="http://purl.org/dc/elements/1.1/" xmlns:cc="http://creativecommons.org/ns#" xmlns:rdf="http://www.w3.org/1999/02/22-rdf-syntax-ns#">
   <cc:Work>
    <dc:type rdf:resource="http://purl.org/dc/dcmitype/StillImage"/>
    <dc:date>2023-05-25T16:35:49.463356</dc:date>
    <dc:format>image/svg+xml</dc:format>
    <dc:creator>
     <cc:Agent>
      <dc:title>Matplotlib v3.7.1, https://matplotlib.org/</dc:title>
     </cc:Agent>
    </dc:creator>
   </cc:Work>
  </rdf:RDF>
 </metadata>
 <defs>
  <style type="text/css">*{stroke-linejoin: round; stroke-linecap: butt}</style>
 </defs>
 <g id="figure_1">
  <g id="patch_1">
   <path d="M 0 345.6 
L 460.8 345.6 
L 460.8 0 
L 0 0 
z
" style="fill: #ffffff"/>
  </g>
  <g id="axes_1">
   <g id="patch_2">
    <path d="M 57.6 307.584 
L 414.72 307.584 
L 414.72 41.472 
L 57.6 41.472 
z
" style="fill: #ffffff"/>
   </g>
   <g id="matplotlib.axis_1">
    <g id="xtick_1">
     <g id="line2d_1">
      <path d="M 90.637807 307.584 
L 90.637807 41.472 
" clip-path="url(#p1d0782a2f0)" style="fill: none; stroke: #b0b0b0; stroke-width: 0.8; stroke-linecap: square"/>
     </g>
     <g id="line2d_2">
      <defs>
       <path id="mbf7966f3f5" d="M 0 0 
L 0 3.5 
" style="stroke: #000000; stroke-width: 0.8"/>
      </defs>
      <g>
       <use xlink:href="#mbf7966f3f5" x="90.637807" y="307.584" style="stroke: #000000; stroke-width: 0.8"/>
      </g>
     </g>
     <g id="text_1">
      <!-- 20 -->
      <g transform="translate(84.275307 322.182437) scale(0.1 -0.1)">
       <defs>
        <path id="DejaVuSans-32" d="M 1228 531 
L 3431 531 
L 3431 0 
L 469 0 
L 469 531 
Q 828 903 1448 1529 
Q 2069 2156 2228 2338 
Q 2531 2678 2651 2914 
Q 2772 3150 2772 3378 
Q 2772 3750 2511 3984 
Q 2250 4219 1831 4219 
Q 1534 4219 1204 4116 
Q 875 4013 500 3803 
L 500 4441 
Q 881 4594 1212 4672 
Q 1544 4750 1819 4750 
Q 2544 4750 2975 4387 
Q 3406 4025 3406 3419 
Q 3406 3131 3298 2873 
Q 3191 2616 2906 2266 
Q 2828 2175 2409 1742 
Q 1991 1309 1228 531 
z
" transform="scale(0.015625)"/>
        <path id="DejaVuSans-30" d="M 2034 4250 
Q 1547 4250 1301 3770 
Q 1056 3291 1056 2328 
Q 1056 1369 1301 889 
Q 1547 409 2034 409 
Q 2525 409 2770 889 
Q 3016 1369 3016 2328 
Q 3016 3291 2770 3770 
Q 2525 4250 2034 4250 
z
M 2034 4750 
Q 2819 4750 3233 4129 
Q 3647 3509 3647 2328 
Q 3647 1150 3233 529 
Q 2819 -91 2034 -91 
Q 1250 -91 836 529 
Q 422 1150 422 2328 
Q 422 3509 836 4129 
Q 1250 4750 2034 4750 
z
" transform="scale(0.015625)"/>
       </defs>
       <use xlink:href="#DejaVuSans-32"/>
       <use xlink:href="#DejaVuSans-30" x="63.623047"/>
      </g>
     </g>
    </g>
    <g id="xtick_2">
     <g id="line2d_3">
      <path d="M 138.077184 307.584 
L 138.077184 41.472 
" clip-path="url(#p1d0782a2f0)" style="fill: none; stroke: #b0b0b0; stroke-width: 0.8; stroke-linecap: square"/>
     </g>
     <g id="line2d_4">
      <g>
       <use xlink:href="#mbf7966f3f5" x="138.077184" y="307.584" style="stroke: #000000; stroke-width: 0.8"/>
      </g>
     </g>
     <g id="text_2">
      <!-- 40 -->
      <g transform="translate(131.714684 322.182437) scale(0.1 -0.1)">
       <defs>
        <path id="DejaVuSans-34" d="M 2419 4116 
L 825 1625 
L 2419 1625 
L 2419 4116 
z
M 2253 4666 
L 3047 4666 
L 3047 1625 
L 3713 1625 
L 3713 1100 
L 3047 1100 
L 3047 0 
L 2419 0 
L 2419 1100 
L 313 1100 
L 313 1709 
L 2253 4666 
z
" transform="scale(0.015625)"/>
       </defs>
       <use xlink:href="#DejaVuSans-34"/>
       <use xlink:href="#DejaVuSans-30" x="63.623047"/>
      </g>
     </g>
    </g>
    <g id="xtick_3">
     <g id="line2d_5">
      <path d="M 185.51656 307.584 
L 185.51656 41.472 
" clip-path="url(#p1d0782a2f0)" style="fill: none; stroke: #b0b0b0; stroke-width: 0.8; stroke-linecap: square"/>
     </g>
     <g id="line2d_6">
      <g>
       <use xlink:href="#mbf7966f3f5" x="185.51656" y="307.584" style="stroke: #000000; stroke-width: 0.8"/>
      </g>
     </g>
     <g id="text_3">
      <!-- 60 -->
      <g transform="translate(179.15406 322.182437) scale(0.1 -0.1)">
       <defs>
        <path id="DejaVuSans-36" d="M 2113 2584 
Q 1688 2584 1439 2293 
Q 1191 2003 1191 1497 
Q 1191 994 1439 701 
Q 1688 409 2113 409 
Q 2538 409 2786 701 
Q 3034 994 3034 1497 
Q 3034 2003 2786 2293 
Q 2538 2584 2113 2584 
z
M 3366 4563 
L 3366 3988 
Q 3128 4100 2886 4159 
Q 2644 4219 2406 4219 
Q 1781 4219 1451 3797 
Q 1122 3375 1075 2522 
Q 1259 2794 1537 2939 
Q 1816 3084 2150 3084 
Q 2853 3084 3261 2657 
Q 3669 2231 3669 1497 
Q 3669 778 3244 343 
Q 2819 -91 2113 -91 
Q 1303 -91 875 529 
Q 447 1150 447 2328 
Q 447 3434 972 4092 
Q 1497 4750 2381 4750 
Q 2619 4750 2861 4703 
Q 3103 4656 3366 4563 
z
" transform="scale(0.015625)"/>
       </defs>
       <use xlink:href="#DejaVuSans-36"/>
       <use xlink:href="#DejaVuSans-30" x="63.623047"/>
      </g>
     </g>
    </g>
    <g id="xtick_4">
     <g id="line2d_7">
      <path d="M 232.955937 307.584 
L 232.955937 41.472 
" clip-path="url(#p1d0782a2f0)" style="fill: none; stroke: #b0b0b0; stroke-width: 0.8; stroke-linecap: square"/>
     </g>
     <g id="line2d_8">
      <g>
       <use xlink:href="#mbf7966f3f5" x="232.955937" y="307.584" style="stroke: #000000; stroke-width: 0.8"/>
      </g>
     </g>
     <g id="text_4">
      <!-- 80 -->
      <g transform="translate(226.593437 322.182437) scale(0.1 -0.1)">
       <defs>
        <path id="DejaVuSans-38" d="M 2034 2216 
Q 1584 2216 1326 1975 
Q 1069 1734 1069 1313 
Q 1069 891 1326 650 
Q 1584 409 2034 409 
Q 2484 409 2743 651 
Q 3003 894 3003 1313 
Q 3003 1734 2745 1975 
Q 2488 2216 2034 2216 
z
M 1403 2484 
Q 997 2584 770 2862 
Q 544 3141 544 3541 
Q 544 4100 942 4425 
Q 1341 4750 2034 4750 
Q 2731 4750 3128 4425 
Q 3525 4100 3525 3541 
Q 3525 3141 3298 2862 
Q 3072 2584 2669 2484 
Q 3125 2378 3379 2068 
Q 3634 1759 3634 1313 
Q 3634 634 3220 271 
Q 2806 -91 2034 -91 
Q 1263 -91 848 271 
Q 434 634 434 1313 
Q 434 1759 690 2068 
Q 947 2378 1403 2484 
z
M 1172 3481 
Q 1172 3119 1398 2916 
Q 1625 2713 2034 2713 
Q 2441 2713 2670 2916 
Q 2900 3119 2900 3481 
Q 2900 3844 2670 4047 
Q 2441 4250 2034 4250 
Q 1625 4250 1398 4047 
Q 1172 3844 1172 3481 
z
" transform="scale(0.015625)"/>
       </defs>
       <use xlink:href="#DejaVuSans-38"/>
       <use xlink:href="#DejaVuSans-30" x="63.623047"/>
      </g>
     </g>
    </g>
    <g id="xtick_5">
     <g id="line2d_9">
      <path d="M 280.395313 307.584 
L 280.395313 41.472 
" clip-path="url(#p1d0782a2f0)" style="fill: none; stroke: #b0b0b0; stroke-width: 0.8; stroke-linecap: square"/>
     </g>
     <g id="line2d_10">
      <g>
       <use xlink:href="#mbf7966f3f5" x="280.395313" y="307.584" style="stroke: #000000; stroke-width: 0.8"/>
      </g>
     </g>
     <g id="text_5">
      <!-- 100 -->
      <g transform="translate(270.851563 322.182437) scale(0.1 -0.1)">
       <defs>
        <path id="DejaVuSans-31" d="M 794 531 
L 1825 531 
L 1825 4091 
L 703 3866 
L 703 4441 
L 1819 4666 
L 2450 4666 
L 2450 531 
L 3481 531 
L 3481 0 
L 794 0 
L 794 531 
z
" transform="scale(0.015625)"/>
       </defs>
       <use xlink:href="#DejaVuSans-31"/>
       <use xlink:href="#DejaVuSans-30" x="63.623047"/>
       <use xlink:href="#DejaVuSans-30" x="127.246094"/>
      </g>
     </g>
    </g>
    <g id="xtick_6">
     <g id="line2d_11">
      <path d="M 327.834689 307.584 
L 327.834689 41.472 
" clip-path="url(#p1d0782a2f0)" style="fill: none; stroke: #b0b0b0; stroke-width: 0.8; stroke-linecap: square"/>
     </g>
     <g id="line2d_12">
      <g>
       <use xlink:href="#mbf7966f3f5" x="327.834689" y="307.584" style="stroke: #000000; stroke-width: 0.8"/>
      </g>
     </g>
     <g id="text_6">
      <!-- 120 -->
      <g transform="translate(318.290939 322.182437) scale(0.1 -0.1)">
       <use xlink:href="#DejaVuSans-31"/>
       <use xlink:href="#DejaVuSans-32" x="63.623047"/>
       <use xlink:href="#DejaVuSans-30" x="127.246094"/>
      </g>
     </g>
    </g>
    <g id="xtick_7">
     <g id="line2d_13">
      <path d="M 375.274066 307.584 
L 375.274066 41.472 
" clip-path="url(#p1d0782a2f0)" style="fill: none; stroke: #b0b0b0; stroke-width: 0.8; stroke-linecap: square"/>
     </g>
     <g id="line2d_14">
      <g>
       <use xlink:href="#mbf7966f3f5" x="375.274066" y="307.584" style="stroke: #000000; stroke-width: 0.8"/>
      </g>
     </g>
     <g id="text_7">
      <!-- 140 -->
      <g transform="translate(365.730316 322.182437) scale(0.1 -0.1)">
       <use xlink:href="#DejaVuSans-31"/>
       <use xlink:href="#DejaVuSans-34" x="63.623047"/>
       <use xlink:href="#DejaVuSans-30" x="127.246094"/>
      </g>
     </g>
    </g>
    <g id="text_8">
     <!-- Latency -->
     <g transform="translate(216.395938 335.860562) scale(0.1 -0.1)">
      <defs>
       <path id="DejaVuSans-4c" d="M 628 4666 
L 1259 4666 
L 1259 531 
L 3531 531 
L 3531 0 
L 628 0 
L 628 4666 
z
" transform="scale(0.015625)"/>
       <path id="DejaVuSans-61" d="M 2194 1759 
Q 1497 1759 1228 1600 
Q 959 1441 959 1056 
Q 959 750 1161 570 
Q 1363 391 1709 391 
Q 2188 391 2477 730 
Q 2766 1069 2766 1631 
L 2766 1759 
L 2194 1759 
z
M 3341 1997 
L 3341 0 
L 2766 0 
L 2766 531 
Q 2569 213 2275 61 
Q 1981 -91 1556 -91 
Q 1019 -91 701 211 
Q 384 513 384 1019 
Q 384 1609 779 1909 
Q 1175 2209 1959 2209 
L 2766 2209 
L 2766 2266 
Q 2766 2663 2505 2880 
Q 2244 3097 1772 3097 
Q 1472 3097 1187 3025 
Q 903 2953 641 2809 
L 641 3341 
Q 956 3463 1253 3523 
Q 1550 3584 1831 3584 
Q 2591 3584 2966 3190 
Q 3341 2797 3341 1997 
z
" transform="scale(0.015625)"/>
       <path id="DejaVuSans-74" d="M 1172 4494 
L 1172 3500 
L 2356 3500 
L 2356 3053 
L 1172 3053 
L 1172 1153 
Q 1172 725 1289 603 
Q 1406 481 1766 481 
L 2356 481 
L 2356 0 
L 1766 0 
Q 1100 0 847 248 
Q 594 497 594 1153 
L 594 3053 
L 172 3053 
L 172 3500 
L 594 3500 
L 594 4494 
L 1172 4494 
z
" transform="scale(0.015625)"/>
       <path id="DejaVuSans-65" d="M 3597 1894 
L 3597 1613 
L 953 1613 
Q 991 1019 1311 708 
Q 1631 397 2203 397 
Q 2534 397 2845 478 
Q 3156 559 3463 722 
L 3463 178 
Q 3153 47 2828 -22 
Q 2503 -91 2169 -91 
Q 1331 -91 842 396 
Q 353 884 353 1716 
Q 353 2575 817 3079 
Q 1281 3584 2069 3584 
Q 2775 3584 3186 3129 
Q 3597 2675 3597 1894 
z
M 3022 2063 
Q 3016 2534 2758 2815 
Q 2500 3097 2075 3097 
Q 1594 3097 1305 2825 
Q 1016 2553 972 2059 
L 3022 2063 
z
" transform="scale(0.015625)"/>
       <path id="DejaVuSans-6e" d="M 3513 2113 
L 3513 0 
L 2938 0 
L 2938 2094 
Q 2938 2591 2744 2837 
Q 2550 3084 2163 3084 
Q 1697 3084 1428 2787 
Q 1159 2491 1159 1978 
L 1159 0 
L 581 0 
L 581 3500 
L 1159 3500 
L 1159 2956 
Q 1366 3272 1645 3428 
Q 1925 3584 2291 3584 
Q 2894 3584 3203 3211 
Q 3513 2838 3513 2113 
z
" transform="scale(0.015625)"/>
       <path id="DejaVuSans-63" d="M 3122 3366 
L 3122 2828 
Q 2878 2963 2633 3030 
Q 2388 3097 2138 3097 
Q 1578 3097 1268 2742 
Q 959 2388 959 1747 
Q 959 1106 1268 751 
Q 1578 397 2138 397 
Q 2388 397 2633 464 
Q 2878 531 3122 666 
L 3122 134 
Q 2881 22 2623 -34 
Q 2366 -91 2075 -91 
Q 1284 -91 818 406 
Q 353 903 353 1747 
Q 353 2603 823 3093 
Q 1294 3584 2113 3584 
Q 2378 3584 2631 3529 
Q 2884 3475 3122 3366 
z
" transform="scale(0.015625)"/>
       <path id="DejaVuSans-79" d="M 2059 -325 
Q 1816 -950 1584 -1140 
Q 1353 -1331 966 -1331 
L 506 -1331 
L 506 -850 
L 844 -850 
Q 1081 -850 1212 -737 
Q 1344 -625 1503 -206 
L 1606 56 
L 191 3500 
L 800 3500 
L 1894 763 
L 2988 3500 
L 3597 3500 
L 2059 -325 
z
" transform="scale(0.015625)"/>
      </defs>
      <use xlink:href="#DejaVuSans-4c"/>
      <use xlink:href="#DejaVuSans-61" x="55.712891"/>
      <use xlink:href="#DejaVuSans-74" x="116.992188"/>
      <use xlink:href="#DejaVuSans-65" x="156.201172"/>
      <use xlink:href="#DejaVuSans-6e" x="217.724609"/>
      <use xlink:href="#DejaVuSans-63" x="281.103516"/>
      <use xlink:href="#DejaVuSans-79" x="336.083984"/>
     </g>
    </g>
   </g>
   <g id="matplotlib.axis_2">
    <g id="ytick_1">
     <g id="line2d_15">
      <path d="M 57.6 295.609021 
L 414.72 295.609021 
" clip-path="url(#p1d0782a2f0)" style="fill: none; stroke: #b0b0b0; stroke-width: 0.8; stroke-linecap: square"/>
     </g>
     <g id="line2d_16">
      <defs>
       <path id="ma860dd20e4" d="M 0 0 
L -3.5 0 
" style="stroke: #000000; stroke-width: 0.8"/>
      </defs>
      <g>
       <use xlink:href="#ma860dd20e4" x="57.6" y="295.609021" style="stroke: #000000; stroke-width: 0.8"/>
      </g>
     </g>
     <g id="text_9">
      <!-- 0.0 -->
      <g transform="translate(34.696875 299.408239) scale(0.1 -0.1)">
       <defs>
        <path id="DejaVuSans-2e" d="M 684 794 
L 1344 794 
L 1344 0 
L 684 0 
L 684 794 
z
" transform="scale(0.015625)"/>
       </defs>
       <use xlink:href="#DejaVuSans-30"/>
       <use xlink:href="#DejaVuSans-2e" x="63.623047"/>
       <use xlink:href="#DejaVuSans-30" x="95.410156"/>
      </g>
     </g>
    </g>
    <g id="ytick_2">
     <g id="line2d_17">
      <path d="M 57.6 247.200816 
L 414.72 247.200816 
" clip-path="url(#p1d0782a2f0)" style="fill: none; stroke: #b0b0b0; stroke-width: 0.8; stroke-linecap: square"/>
     </g>
     <g id="line2d_18">
      <g>
       <use xlink:href="#ma860dd20e4" x="57.6" y="247.200816" style="stroke: #000000; stroke-width: 0.8"/>
      </g>
     </g>
     <g id="text_10">
      <!-- 0.2 -->
      <g transform="translate(34.696875 251.000035) scale(0.1 -0.1)">
       <use xlink:href="#DejaVuSans-30"/>
       <use xlink:href="#DejaVuSans-2e" x="63.623047"/>
       <use xlink:href="#DejaVuSans-32" x="95.410156"/>
      </g>
     </g>
    </g>
    <g id="ytick_3">
     <g id="line2d_19">
      <path d="M 57.6 198.792612 
L 414.72 198.792612 
" clip-path="url(#p1d0782a2f0)" style="fill: none; stroke: #b0b0b0; stroke-width: 0.8; stroke-linecap: square"/>
     </g>
     <g id="line2d_20">
      <g>
       <use xlink:href="#ma860dd20e4" x="57.6" y="198.792612" style="stroke: #000000; stroke-width: 0.8"/>
      </g>
     </g>
     <g id="text_11">
      <!-- 0.4 -->
      <g transform="translate(34.696875 202.591831) scale(0.1 -0.1)">
       <use xlink:href="#DejaVuSans-30"/>
       <use xlink:href="#DejaVuSans-2e" x="63.623047"/>
       <use xlink:href="#DejaVuSans-34" x="95.410156"/>
      </g>
     </g>
    </g>
    <g id="ytick_4">
     <g id="line2d_21">
      <path d="M 57.6 150.384408 
L 414.72 150.384408 
" clip-path="url(#p1d0782a2f0)" style="fill: none; stroke: #b0b0b0; stroke-width: 0.8; stroke-linecap: square"/>
     </g>
     <g id="line2d_22">
      <g>
       <use xlink:href="#ma860dd20e4" x="57.6" y="150.384408" style="stroke: #000000; stroke-width: 0.8"/>
      </g>
     </g>
     <g id="text_12">
      <!-- 0.6 -->
      <g transform="translate(34.696875 154.183627) scale(0.1 -0.1)">
       <use xlink:href="#DejaVuSans-30"/>
       <use xlink:href="#DejaVuSans-2e" x="63.623047"/>
       <use xlink:href="#DejaVuSans-36" x="95.410156"/>
      </g>
     </g>
    </g>
    <g id="ytick_5">
     <g id="line2d_23">
      <path d="M 57.6 101.976204 
L 414.72 101.976204 
" clip-path="url(#p1d0782a2f0)" style="fill: none; stroke: #b0b0b0; stroke-width: 0.8; stroke-linecap: square"/>
     </g>
     <g id="line2d_24">
      <g>
       <use xlink:href="#ma860dd20e4" x="57.6" y="101.976204" style="stroke: #000000; stroke-width: 0.8"/>
      </g>
     </g>
     <g id="text_13">
      <!-- 0.8 -->
      <g transform="translate(34.696875 105.775423) scale(0.1 -0.1)">
       <use xlink:href="#DejaVuSans-30"/>
       <use xlink:href="#DejaVuSans-2e" x="63.623047"/>
       <use xlink:href="#DejaVuSans-38" x="95.410156"/>
      </g>
     </g>
    </g>
    <g id="ytick_6">
     <g id="line2d_25">
      <path d="M 57.6 53.568 
L 414.72 53.568 
" clip-path="url(#p1d0782a2f0)" style="fill: none; stroke: #b0b0b0; stroke-width: 0.8; stroke-linecap: square"/>
     </g>
     <g id="line2d_26">
      <g>
       <use xlink:href="#ma860dd20e4" x="57.6" y="53.568" style="stroke: #000000; stroke-width: 0.8"/>
      </g>
     </g>
     <g id="text_14">
      <!-- 1.0 -->
      <g transform="translate(34.696875 57.367219) scale(0.1 -0.1)">
       <use xlink:href="#DejaVuSans-31"/>
       <use xlink:href="#DejaVuSans-2e" x="63.623047"/>
       <use xlink:href="#DejaVuSans-30" x="95.410156"/>
      </g>
     </g>
    </g>
    <g id="text_15">
     <!-- ECDF -->
     <g transform="translate(28.617188 187.904562) rotate(-90) scale(0.1 -0.1)">
      <defs>
       <path id="DejaVuSans-45" d="M 628 4666 
L 3578 4666 
L 3578 4134 
L 1259 4134 
L 1259 2753 
L 3481 2753 
L 3481 2222 
L 1259 2222 
L 1259 531 
L 3634 531 
L 3634 0 
L 628 0 
L 628 4666 
z
" transform="scale(0.015625)"/>
       <path id="DejaVuSans-43" d="M 4122 4306 
L 4122 3641 
Q 3803 3938 3442 4084 
Q 3081 4231 2675 4231 
Q 1875 4231 1450 3742 
Q 1025 3253 1025 2328 
Q 1025 1406 1450 917 
Q 1875 428 2675 428 
Q 3081 428 3442 575 
Q 3803 722 4122 1019 
L 4122 359 
Q 3791 134 3420 21 
Q 3050 -91 2638 -91 
Q 1578 -91 968 557 
Q 359 1206 359 2328 
Q 359 3453 968 4101 
Q 1578 4750 2638 4750 
Q 3056 4750 3426 4639 
Q 3797 4528 4122 4306 
z
" transform="scale(0.015625)"/>
       <path id="DejaVuSans-44" d="M 1259 4147 
L 1259 519 
L 2022 519 
Q 2988 519 3436 956 
Q 3884 1394 3884 2338 
Q 3884 3275 3436 3711 
Q 2988 4147 2022 4147 
L 1259 4147 
z
M 628 4666 
L 1925 4666 
Q 3281 4666 3915 4102 
Q 4550 3538 4550 2338 
Q 4550 1131 3912 565 
Q 3275 0 1925 0 
L 628 0 
L 628 4666 
z
" transform="scale(0.015625)"/>
       <path id="DejaVuSans-46" d="M 628 4666 
L 3309 4666 
L 3309 4134 
L 1259 4134 
L 1259 2759 
L 3109 2759 
L 3109 2228 
L 1259 2228 
L 1259 0 
L 628 0 
L 628 4666 
z
" transform="scale(0.015625)"/>
      </defs>
      <use xlink:href="#DejaVuSans-45"/>
      <use xlink:href="#DejaVuSans-43" x="63.183594"/>
      <use xlink:href="#DejaVuSans-44" x="133.007812"/>
      <use xlink:href="#DejaVuSans-46" x="210.009766"/>
     </g>
    </g>
   </g>
   <g id="line2d_27">
    <path d="M 73.832727 295.488 
L 74.111074 295.488 
L 74.296639 295.245959 
L 74.482203 295.245959 
L 74.76055 295.003918 
L 74.946115 295.003918 
L 75.131679 294.882897 
L 75.317244 294.882897 
L 75.688373 293.672692 
L 76.337849 290.889221 
L 76.801761 285.080236 
L 77.729584 270.315734 
L 79.770794 222.02855 
L 80.327488 210.894663 
L 80.884182 199.518735 
L 81.069746 195.7671 
L 81.812004 182.938925 
L 82.090351 178.945249 
L 82.46148 173.378305 
L 82.83261 168.779526 
L 83.018174 166.722177 
L 83.389303 162.365439 
L 83.574868 160.913193 
L 84.131562 153.772982 
L 84.502691 150.263388 
L 84.688256 148.569101 
L 85.152167 144.212362 
L 85.708861 139.00848 
L 86.729466 130.658065 
L 86.822248 130.295004 
L 87.193377 126.180306 
L 87.28616 125.817245 
L 87.657289 122.549691 
L 88.213983 119.403158 
L 88.585112 116.256624 
L 88.770676 115.046419 
L 89.049023 113.957235 
L 89.141806 113.715194 
L 89.420152 112.141927 
L 89.791282 111.294783 
L 90.255193 107.422127 
L 90.347975 107.301107 
L 90.997451 104.396614 
L 91.090234 104.396614 
L 91.368581 102.944368 
L 92.018057 101.00804 
L 92.296404 99.918855 
L 92.481968 99.676814 
L 92.94588 97.982527 
L 93.038662 97.982527 
L 93.409791 96.16722 
L 93.502573 96.16722 
L 93.688138 95.683138 
L 93.78092 95.683138 
L 94.059267 94.835994 
L 94.244832 94.230891 
L 94.615961 93.141707 
L 94.801525 92.778645 
L 95.543784 91.084358 
L 95.636566 90.963338 
L 95.822131 90.600276 
L 96.100478 90.116194 
L 96.378824 89.632112 
L 96.749954 88.421907 
L 96.842736 88.421907 
L 97.770559 87.332722 
L 97.863341 87.332722 
L 97.956123 87.211702 
L 98.420035 85.759456 
L 98.883946 85.033333 
L 99.069511 84.791292 
L 99.255075 84.670271 
L 99.347858 84.670271 
L 99.904552 84.065169 
L 99.997334 84.065169 
L 100.461245 83.581087 
L 100.554028 83.581087 
L 100.925157 82.975984 
L 101.296286 82.249861 
L 101.389068 82.249861 
L 101.945762 81.644758 
L 102.131327 81.644758 
L 102.409673 81.160676 
L 102.595238 81.039656 
L 102.873585 81.039656 
L 103.059149 80.434553 
L 103.801408 79.58741 
L 103.89419 79.58741 
L 104.543666 78.861287 
L 105.007578 78.861287 
L 105.193142 78.498225 
L 105.378707 78.256184 
L 105.749836 77.893123 
L 105.935401 77.28802 
L 106.30653 77.28802 
L 106.492094 77.166999 
L 106.677659 77.166999 
L 106.956006 76.682917 
L 107.327135 76.682917 
L 107.605482 76.198835 
L 107.698264 76.198835 
L 108.162176 75.714753 
L 108.34774 75.714753 
L 108.533305 75.472712 
L 109.275563 74.383528 
L 109.461128 74.020466 
L 109.646692 73.899446 
L 110.017821 73.899446 
L 110.203386 73.778425 
L 110.296168 73.778425 
L 110.574515 73.536384 
L 110.667297 73.536384 
L 110.852862 73.173323 
L 111.223991 73.173323 
L 111.409556 72.810261 
L 111.59512 72.810261 
L 111.780685 72.56822 
L 112.151814 72.56822 
L 112.986855 71.600056 
L 113.079637 71.600056 
L 113.450766 71.236994 
L 113.543549 71.236994 
L 114.00746 70.752912 
L 114.285807 70.752912 
L 114.378589 70.631892 
L 114.564154 70.14781 
L 115.028065 70.14781 
L 115.399194 69.784748 
L 115.491977 69.784748 
L 115.677541 69.663728 
L 115.955888 69.663728 
L 116.141453 69.542707 
L 116.234235 69.542707 
L 116.4198 69.179646 
L 116.605364 69.179646 
L 116.883711 68.695564 
L 117.25484 68.695564 
L 117.533187 68.211482 
L 117.718752 67.969441 
L 117.904316 67.969441 
L 118.089881 67.84842 
L 118.368228 67.84842 
L 118.739357 67.485359 
L 119.017704 67.485359 
L 119.388833 67.122297 
L 119.852744 67.122297 
L 120.038309 66.880256 
L 120.223874 66.759236 
L 120.595003 66.759236 
L 120.780567 66.638215 
L 120.87335 66.638215 
L 121.058914 66.275154 
L 121.244479 66.275154 
L 121.430043 65.912092 
L 121.522826 65.912092 
L 121.70839 65.791072 
L 122.172302 65.791072 
L 122.357866 65.670051 
L 123.192907 65.670051 
L 123.378472 65.549031 
L 123.471254 65.549031 
L 123.749601 65.306989 
L 123.842383 65.306989 
L 124.027948 65.185969 
L 124.677424 65.185969 
L 124.955771 64.943928 
L 125.790811 64.943928 
L 125.976376 64.822907 
L 126.069158 64.822907 
L 126.347505 64.580866 
L 126.904199 64.580866 
L 127.089763 64.459846 
L 127.275328 64.459846 
L 127.646457 64.096784 
L 127.924804 64.096784 
L 128.203151 63.854743 
L 128.57428 63.854743 
L 128.852627 63.612702 
L 129.130974 63.612702 
L 129.316538 63.491682 
L 129.409321 63.491682 
L 129.594885 63.370661 
L 129.78045 63.370661 
L 130.058797 63.12862 
L 130.244361 63.12862 
L 130.522708 62.886579 
L 130.708273 62.886579 
L 130.98662 62.644538 
L 131.079402 62.644538 
L 131.264966 62.523518 
L 131.450531 62.523518 
L 131.728878 62.281477 
L 132.100007 62.281477 
L 132.285572 62.160456 
L 132.842265 62.160456 
L 133.02783 61.918415 
L 133.306177 61.918415 
L 133.584524 61.676374 
L 133.955653 61.676374 
L 134.141217 61.555354 
L 134.326782 61.555354 
L 134.605129 61.313313 
L 134.697911 61.313313 
L 134.883476 61.192292 
L 136.924686 61.192292 
L 137.110251 61.071272 
L 137.203033 61.071272 
L 137.48138 60.829231 
L 137.759727 60.829231 
L 137.945291 60.70821 
L 138.130856 60.70821 
L 138.594768 60.224128 
L 138.965897 60.224128 
L 139.151461 60.103108 
L 139.708155 60.103108 
L 140.264849 59.498005 
L 140.357631 59.498005 
L 140.543196 59.376984 
L 140.635978 59.376984 
L 140.821543 59.255964 
L 141.842148 59.255964 
L 142.027712 59.134943 
L 142.213277 59.134943 
L 142.398842 59.013923 
L 143.326664 59.013923 
L 144.068923 58.166779 
L 144.996746 58.166779 
L 145.18231 58.045759 
L 145.275093 58.045759 
L 145.460657 57.803718 
L 145.553439 57.803718 
L 145.831786 57.561677 
L 146.481262 57.561677 
L 146.666827 57.440656 
L 148.058561 57.440656 
L 148.336908 57.198615 
L 148.522473 57.198615 
L 148.708037 57.077595 
L 150.563683 57.077595 
L 150.934812 56.714533 
L 151.491506 56.714533 
L 151.677071 56.593513 
L 151.769853 56.593513 
L 151.955418 56.472492 
L 152.326547 56.472492 
L 152.512111 56.351472 
L 155.388362 56.351472 
L 155.666709 56.109431 
L 156.687315 56.109431 
L 156.872879 55.98841 
L 158.821307 55.98841 
L 159.006872 55.86739 
L 159.656348 55.86739 
L 159.841913 55.746369 
L 159.934695 55.746369 
L 160.120259 55.625349 
L 166.336673 55.625349 
L 166.522238 55.504328 
L 167.357278 55.504328 
L 167.542843 55.383308 
L 170.047965 55.383308 
L 170.233529 55.262287 
L 176.357161 55.262287 
L 176.542725 55.141267 
L 180.625146 55.141267 
L 180.810711 55.020246 
L 187.398253 55.020246 
L 187.583818 54.899226 
L 189.068335 54.899226 
L 189.253899 54.778205 
L 192.779626 54.778205 
L 192.965191 54.657185 
L 195.191966 54.657185 
L 195.377531 54.536164 
L 203.635155 54.536164 
L 203.820719 54.415144 
L 212.913384 54.415144 
L 213.191731 54.173103 
L 215.60407 54.173103 
L 215.789635 54.052082 
L 218.851451 54.052082 
L 219.037015 53.931062 
L 223.026654 53.931062 
L 223.212218 53.810041 
L 254.85098 53.810041 
L 255.036545 53.689021 
L 259.211748 53.689021 
L 259.30453 53.568 
L 259.30453 53.568 
" clip-path="url(#p1d0782a2f0)" style="fill: none; stroke: #1f77b4; stroke-width: 1.5; stroke-linecap: square"/>
   </g>
   <g id="line2d_28">
    <path d="M 77.238863 295.488 
L 77.402573 295.366979 
L 77.729994 295.366979 
L 77.893704 295.245959 
L 78.057415 295.245959 
L 78.384836 294.882897 
L 78.794112 294.882897 
L 79.039677 294.398815 
L 79.285243 294.398815 
L 79.530808 293.793713 
L 79.612664 293.793713 
L 79.858229 293.309631 
L 80.02194 293.06759 
L 80.267505 292.825549 
L 80.34936 292.825549 
L 80.594926 292.462487 
L 80.840492 291.494323 
L 80.922347 291.494323 
L 81.413478 289.194933 
L 81.659043 287.742687 
L 81.822754 287.379626 
L 81.904609 287.379626 
L 82.23203 286.169421 
L 83.787279 276.366759 
L 84.114699 272.736144 
L 84.44212 268.258385 
L 84.933251 263.901647 
L 85.178817 260.997155 
L 85.506238 257.124498 
L 85.833658 251.436534 
L 87.634473 223.359776 
L 88.53488 209.200376 
L 88.862301 203.512412 
L 89.271577 195.646079 
L 89.680853 189.837095 
L 90.253839 180.639536 
L 92.054653 155.58829 
L 92.136509 155.225229 
L 92.709495 147.479916 
L 92.873205 146.269711 
L 93.364337 140.460726 
L 93.855468 136.46705 
L 94.755875 129.084798 
L 95.247006 123.275814 
L 95.574427 120.250301 
L 95.819992 118.798055 
L 97.538952 106.817025 
L 97.620807 106.574983 
L 98.603069 100.039876 
L 99.585331 96.16722 
L 99.830897 95.199056 
L 100.240173 93.383748 
L 100.322028 93.262727 
L 100.649449 91.44742 
L 101.058725 89.269051 
L 101.222435 88.542927 
L 101.304291 88.542927 
L 101.549856 87.211702 
L 101.959132 85.275374 
L 102.040987 85.275374 
L 102.532119 83.581087 
L 103.268815 81.160676 
L 103.596236 80.071492 
L 103.841802 79.70843 
L 104.087367 78.861287 
L 104.169222 78.861287 
L 104.332933 78.498225 
L 104.496643 78.135164 
L 104.578498 77.893123 
L 104.824064 76.682917 
L 104.987774 76.319856 
L 105.06963 76.319856 
L 105.39705 75.835774 
L 105.642616 75.230671 
L 105.970037 74.625569 
L 106.870444 72.205159 
L 106.952299 72.084138 
L 107.11601 71.600056 
L 107.197865 71.600056 
L 107.607141 70.26883 
L 107.688996 70.26883 
L 107.852706 69.905769 
L 107.934562 69.905769 
L 108.180127 69.300666 
L 108.425693 68.937605 
L 108.589403 68.453523 
L 108.753113 68.453523 
L 109.080534 68.090461 
L 109.162389 68.090461 
L 109.3261 67.84842 
L 109.653521 67.485359 
L 109.735376 67.485359 
L 109.899086 67.243318 
L 110.062797 67.243318 
L 110.308362 67.001277 
L 110.390217 67.001277 
L 110.553928 66.638215 
L 110.635783 66.638215 
L 111.045059 66.154133 
L 111.126914 66.154133 
L 111.37248 65.912092 
L 111.454335 65.912092 
L 111.53619 65.791072 
L 111.781756 65.185969 
L 111.945466 64.943928 
L 112.109177 64.943928 
L 112.436597 64.580866 
L 112.518453 64.580866 
L 112.682163 64.459846 
L 112.764018 64.459846 
L 112.927728 64.096784 
L 113.091439 63.854743 
L 113.255149 63.733723 
L 113.41886 63.733723 
L 113.58257 63.612702 
L 113.664425 63.612702 
L 113.828136 63.491682 
L 114.237412 63.491682 
L 114.401122 63.249641 
L 114.482977 63.249641 
L 114.646688 63.0076 
L 114.810398 62.644538 
L 114.974108 62.644538 
L 115.137819 62.402497 
L 115.301529 62.402497 
L 115.874516 61.676374 
L 116.201936 61.676374 
L 116.365647 61.555354 
L 116.529357 61.555354 
L 117.102344 60.829231 
L 117.184199 60.829231 
L 117.347909 60.70821 
L 118.002751 60.70821 
L 118.166461 60.466169 
L 118.248316 60.466169 
L 118.412027 60.345149 
L 118.575737 60.345149 
L 118.739447 60.224128 
L 118.821303 60.224128 
L 119.230579 59.740046 
L 119.312434 59.740046 
L 119.639855 59.376984 
L 120.049131 59.376984 
L 120.376551 59.013923 
L 120.540262 59.013923 
L 120.703972 58.771882 
L 120.785827 58.771882 
L 121.113248 58.40882 
L 121.604379 58.40882 
L 121.76809 58.166779 
L 122.259221 58.166779 
L 122.504786 57.924738 
L 122.914062 57.924738 
L 123.077773 57.803718 
L 123.405194 57.803718 
L 123.568904 57.682697 
L 123.81447 57.682697 
L 123.97818 57.440656 
L 128.07094 57.440656 
L 128.23465 57.319636 
L 128.971347 57.319636 
L 129.135057 57.198615 
L 130.362885 57.198615 
L 130.526596 57.077595 
L 133.882659 57.077595 
L 134.046369 56.956574 
L 134.21008 56.956574 
L 134.37379 56.835554 
L 135.601618 56.835554 
L 135.765328 56.714533 
L 136.747591 56.714533 
L 136.911301 56.593513 
L 138.302839 56.593513 
L 138.46655 56.472492 
L 138.957681 56.472492 
L 139.121391 56.351472 
L 140.67664 56.351472 
L 140.84035 56.230451 
L 141.904468 56.230451 
L 142.068178 56.109431 
L 144.196414 56.109431 
L 144.360124 55.98841 
L 145.014965 55.98841 
L 145.178676 55.86739 
L 150.417408 55.86739 
L 150.581119 55.746369 
L 151.563381 55.746369 
L 151.727092 55.625349 
L 157.3751 55.625349 
L 157.538811 55.504328 
L 157.948086 55.504328 
L 158.111797 55.383308 
L 159.667046 55.383308 
L 159.830756 55.262287 
L 160.321887 55.262287 
L 160.485598 55.141267 
L 162.286412 55.141267 
L 162.450122 54.899226 
L 166.461027 54.899226 
L 166.624737 54.778205 
L 167.93442 54.778205 
L 168.098131 54.657185 
L 169.489669 54.657185 
L 169.65338 54.536164 
L 174.810257 54.536164 
L 174.973967 54.415144 
L 176.938492 54.415144 
L 177.102202 54.294123 
L 179.639714 54.294123 
L 179.803424 54.173103 
L 180.785686 54.173103 
L 180.949397 54.052082 
L 185.860708 54.052082 
L 186.024419 53.931062 
L 188.971206 53.931062 
L 189.134916 53.810041 
L 217.047538 53.810041 
L 217.211249 53.689021 
L 240.785545 53.689021 
L 240.8674 53.568 
L 240.8674 53.568 
" clip-path="url(#p1d0782a2f0)" style="fill: none; stroke: #ff7f0e; stroke-width: 1.5; stroke-linecap: square"/>
   </g>
   <g id="line2d_29">
    <path d="M 90.864536 295.488 
L 91.022086 295.488 
L 91.179635 295.366979 
L 91.573508 295.366979 
L 91.731058 295.245959 
L 92.203706 295.245959 
L 92.361255 295.124938 
L 92.597579 295.124938 
L 92.755129 294.882897 
L 93.070227 294.882897 
L 93.227777 294.640856 
L 94.330622 294.640856 
L 94.488171 294.398815 
L 94.566946 294.398815 
L 94.882045 294.035754 
L 95.039594 294.035754 
L 95.275918 293.551672 
L 95.433467 293.430651 
L 95.827341 293.430651 
L 95.98489 293.309631 
L 96.14244 293.309631 
L 96.299989 293.06759 
L 96.693862 293.06759 
L 96.851412 292.946569 
L 97.16651 292.946569 
L 97.481609 292.583508 
L 97.560384 292.583508 
L 97.954257 292.099426 
L 98.190581 292.099426 
L 98.34813 291.857385 
L 98.426905 291.857385 
L 98.742004 291.494323 
L 98.820778 291.494323 
L 98.978328 291.131262 
L 99.214652 291.131262 
L 99.372201 291.010241 
L 99.450976 291.010241 
L 99.608525 290.889221 
L 99.766075 290.889221 
L 99.923624 290.7682 
L 100.081173 290.7682 
L 100.238723 290.64718 
L 100.396272 290.64718 
L 100.553821 290.526159 
L 100.632596 290.526159 
L 100.947695 290.163098 
L 101.105244 290.163098 
L 101.262793 289.921057 
L 101.341568 289.921057 
L 101.577892 289.436974 
L 101.892991 289.073913 
L 101.971765 289.073913 
L 102.129315 288.710851 
L 102.208089 288.710851 
L 102.365639 288.589831 
L 102.444414 288.589831 
L 102.759512 288.226769 
L 102.838287 288.226769 
L 103.468484 287.379626 
L 103.547259 287.379626 
L 104.019907 286.774523 
L 104.098682 286.774523 
L 104.256231 286.653503 
L 104.335006 286.653503 
L 104.492555 286.532482 
L 104.57133 286.532482 
L 104.807654 286.290441 
L 105.280302 286.290441 
L 106.304373 284.838195 
L 106.619471 284.838195 
L 107.643542 283.143908 
L 107.801091 282.901867 
L 108.037415 282.659826 
L 108.273739 281.812682 
L 108.431289 281.691662 
L 108.510063 281.691662 
L 109.691684 279.997375 
L 109.770458 279.997375 
L 110.085557 279.634313 
L 110.243106 279.029211 
L 110.321881 279.029211 
L 110.873304 278.061047 
L 111.109628 277.455944 
L 111.267177 277.213903 
L 111.503501 276.48778 
L 111.582276 276.48778 
L 111.976149 275.519616 
L 112.054924 275.519616 
L 112.448797 274.793493 
L 112.842671 273.825329 
L 112.921445 273.704308 
L 113.157769 272.615124 
L 113.472868 272.010021 
L 113.630417 271.76798 
L 113.866741 271.404918 
L 114.103065 270.799816 
L 114.496939 270.073693 
L 114.969587 268.863488 
L 115.284685 268.379406 
L 115.599784 267.04818 
L 116.781404 263.538585 
L 116.860179 263.538585 
L 117.017728 262.933483 
L 117.096503 262.933483 
L 117.254052 262.570421 
L 117.647926 261.239196 
L 118.199348 259.423888 
L 118.750771 256.640416 
L 118.829546 256.519396 
L 119.144645 254.946129 
L 119.617293 252.646739 
L 120.405039 249.500206 
L 120.483814 249.500206 
L 121.350335 245.022447 
L 121.901758 241.512852 
L 122.374406 239.818565 
L 122.689505 238.729381 
L 123.319702 234.614683 
L 123.477252 233.88856 
L 123.79235 232.799376 
L 123.871125 232.799376 
L 124.186224 231.589171 
L 124.658872 228.684678 
L 124.737646 228.563658 
L 125.052745 226.74835 
L 125.289069 225.296104 
L 125.525393 223.722837 
L 127.022112 214.162217 
L 127.337211 211.136704 
L 128.046183 206.537925 
L 128.124957 206.416904 
L 128.440056 203.996494 
L 128.991479 199.760776 
L 129.149028 199.034653 
L 130.094324 191.289341 
L 130.173099 191.0473 
L 132.851438 167.206259 
L 133.481635 163.817685 
L 133.717959 162.849521 
L 133.875509 162.002377 
L 134.111833 160.429111 
L 134.190607 160.429111 
L 134.348157 159.824008 
L 135.293453 153.651962 
L 135.608552 150.989511 
L 135.687326 150.989511 
L 135.844876 150.626449 
L 136.0812 149.658285 
L 136.396298 147.721957 
L 136.711397 145.785629 
L 136.790172 145.664608 
L 137.10527 142.760116 
L 137.656693 138.645419 
L 137.893017 137.435214 
L 138.28689 134.28868 
L 138.680764 131.505209 
L 139.310961 128.116634 
L 139.62606 126.664388 
L 139.704835 126.543368 
L 140.098708 124.60704 
L 140.256257 124.364998 
L 140.886455 119.88724 
L 141.122779 118.192952 
L 142.461948 112.262947 
L 142.540723 112.262947 
L 143.013371 109.963558 
L 143.17092 109.237435 
L 143.407244 108.269271 
L 143.879892 106.696004 
L 144.116216 105.001717 
L 144.667639 103.065389 
L 144.903963 101.976204 
L 145.455386 99.918855 
L 145.534161 99.797835 
L 146.321907 96.651302 
L 146.400682 96.409261 
L 146.952105 93.020686 
L 147.188429 92.173543 
L 147.267203 92.173543 
L 147.424753 91.810481 
L 147.739851 90.116194 
L 148.370049 88.300886 
L 148.448824 88.300886 
L 148.685148 87.453743 
L 148.763922 87.453743 
L 150.024317 83.823128 
L 150.103092 83.823128 
L 150.890838 81.644758 
L 151.363486 81.039656 
L 151.521036 81.039656 
L 151.836135 79.950471 
L 152.072459 79.103328 
L 152.230008 79.103328 
L 152.466332 78.861287 
L 152.545107 78.861287 
L 152.702656 78.619246 
L 152.860205 78.014143 
L 153.096529 77.651082 
L 153.332853 77.045979 
L 153.411628 76.924958 
L 153.884276 75.109651 
L 154.356924 74.504548 
L 154.829572 74.504548 
L 155.853643 72.931282 
L 156.089967 72.084138 
L 156.168742 72.084138 
L 156.405066 71.479036 
L 156.48384 71.479036 
L 156.64139 71.358015 
L 156.798939 71.358015 
L 157.035263 70.873933 
L 157.114038 70.752912 
L 157.271587 70.026789 
L 157.350362 70.026789 
L 157.980559 69.179646 
L 158.059334 69.179646 
L 158.374433 68.211482 
L 158.531982 67.969441 
L 158.768306 67.364338 
L 159.398503 66.517195 
L 159.556053 66.517195 
L 159.792377 66.033113 
L 159.871151 66.033113 
L 160.18625 65.670051 
L 160.422574 65.670051 
L 160.895222 65.064948 
L 161.131546 65.064948 
L 161.36787 64.822907 
L 161.446645 64.822907 
L 161.604194 64.701887 
L 161.761744 64.701887 
L 161.919293 64.580866 
L 162.313166 64.580866 
L 162.470716 64.217805 
L 162.864589 64.217805 
L 163.022138 64.096784 
L 163.179688 64.096784 
L 163.337237 63.854743 
L 163.416012 63.733723 
L 163.573561 63.249641 
L 163.73111 63.0076 
L 164.755181 63.0076 
L 164.912731 62.886579 
L 165.306604 62.886579 
L 165.464153 62.765559 
L 165.858027 62.765559 
L 166.173125 62.402497 
L 166.488224 62.402497 
L 167.118421 61.555354 
L 167.43352 61.555354 
L 167.591069 61.434333 
L 167.669844 61.434333 
L 167.984943 61.071272 
L 168.930239 61.071272 
L 169.166563 60.829231 
L 169.875535 60.829231 
L 170.033084 60.70821 
L 170.820831 60.70821 
L 170.97838 60.58719 
L 171.608578 60.58719 
L 171.766127 60.466169 
L 172.475099 60.466169 
L 172.711423 60.224128 
L 173.971818 60.224128 
L 174.129367 60.103108 
L 174.917114 60.103108 
L 175.074664 59.982087 
L 175.232213 59.982087 
L 175.389762 59.861067 
L 176.177509 59.861067 
L 176.413833 59.619026 
L 176.492608 59.619026 
L 176.650157 59.376984 
L 177.280354 59.376984 
L 177.516678 59.134943 
L 177.831777 59.134943 
L 177.989327 59.013923 
L 178.934623 59.013923 
L 179.092172 58.892902 
L 179.407271 58.892902 
L 179.56482 58.771882 
L 180.195017 58.771882 
L 180.352567 58.650861 
L 181.061539 58.650861 
L 181.219088 58.529841 
L 181.376638 58.529841 
L 181.534187 58.40882 
L 181.849286 58.40882 
L 182.006835 58.166779 
L 182.08561 58.166779 
L 182.243159 58.045759 
L 183.188455 58.045759 
L 183.346004 57.924738 
L 183.582328 57.924738 
L 183.739878 57.803718 
L 183.818652 57.803718 
L 183.976202 57.682697 
L 184.606399 57.682697 
L 184.763949 57.561677 
L 185.394146 57.561677 
L 185.551695 57.319636 
L 185.788019 57.077595 
L 186.418217 57.077595 
L 186.575766 56.956574 
L 186.890865 56.956574 
L 187.048414 56.835554 
L 187.205963 56.835554 
L 187.363513 56.714533 
L 187.442287 56.714533 
L 187.599837 56.593513 
L 187.678611 56.593513 
L 187.836161 56.472492 
L 188.860232 56.472492 
L 189.017781 56.351472 
L 189.805528 56.351472 
L 189.963077 56.230451 
L 190.120626 56.230451 
L 190.278176 56.109431 
L 190.672049 56.109431 
L 190.829598 55.98841 
L 191.538571 55.98841 
L 191.69612 55.86739 
L 192.247543 55.86739 
L 192.562641 55.504328 
L 195.004656 55.504328 
L 195.162206 55.383308 
L 195.24098 55.383308 
L 195.39853 55.262287 
L 196.501375 55.262287 
L 196.658924 55.141267 
L 196.737699 55.141267 
L 196.895248 55.020246 
L 197.525446 55.020246 
L 197.682995 54.899226 
L 198.076869 54.899226 
L 198.234418 54.778205 
L 202.173152 54.778205 
L 202.330701 54.657185 
L 221.315398 54.657185 
L 221.551722 54.415144 
L 234.785867 54.415144 
L 234.943416 54.294123 
L 241.40294 54.294123 
L 241.560489 54.173103 
L 243.844955 54.173103 
L 244.002504 54.052082 
L 246.995942 54.052082 
L 247.153491 53.931062 
L 247.389815 53.931062 
L 247.547364 53.810041 
L 247.783688 53.810041 
L 247.941238 53.689021 
L 248.256336 53.689021 
L 248.335111 53.568 
L 248.335111 53.568 
" clip-path="url(#p1d0782a2f0)" style="fill: none; stroke: #2ca02c; stroke-width: 1.5; stroke-linecap: square"/>
   </g>
   <g id="line2d_30">
    <path d="M 102.550471 295.488 
L 106.842045 295.488 
L 107.220713 295.245959 
L 108.104272 295.245959 
L 108.356717 295.124938 
L 108.609163 295.124938 
L 108.861608 295.003918 
L 109.492722 295.003918 
L 109.745168 294.882897 
L 110.502504 294.882897 
L 110.75495 294.761877 
L 111.386063 294.761877 
L 111.638509 294.640856 
L 113.026959 294.640856 
L 113.279404 294.519836 
L 114.162964 294.519836 
L 114.667855 294.156774 
L 114.9203 294.156774 
L 115.298968 293.914733 
L 115.551414 293.914733 
L 115.803859 293.551672 
L 116.30875 293.551672 
L 116.561196 293.430651 
L 116.813641 293.430651 
L 117.066087 293.309631 
L 117.444755 293.309631 
L 117.570978 292.946569 
L 117.823423 292.946569 
L 118.454537 292.462487 
L 118.706982 292.462487 
L 118.959428 292.341467 
L 119.085651 292.341467 
L 119.338096 292.220446 
L 119.464319 292.220446 
L 119.716764 291.857385 
L 120.095433 291.857385 
L 120.474101 291.615344 
L 120.600324 291.615344 
L 120.726546 291.252282 
L 120.852769 291.252282 
L 120.978992 291.010241 
L 121.231437 291.010241 
L 121.35766 290.7682 
L 121.610106 290.7682 
L 121.862551 290.405139 
L 122.998556 289.436974 
L 123.124778 289.436974 
L 123.377224 289.315954 
L 123.503447 289.315954 
L 123.755892 289.194933 
L 124.13456 289.194933 
L 125.01812 288.46881 
L 125.396788 288.46881 
L 126.154124 287.621667 
L 126.280347 287.258605 
L 126.785238 287.258605 
L 127.542574 286.653503 
L 127.668797 286.653503 
L 128.426134 286.0484 
L 128.552356 286.0484 
L 129.940807 284.596154 
L 130.193252 284.233093 
L 130.445698 284.112072 
L 130.698143 284.112072 
L 130.950589 283.991052 
L 131.076811 283.991052 
L 131.203034 283.62799 
L 131.329257 283.62799 
L 131.581702 283.385949 
L 131.834148 282.780846 
L 132.086593 282.780846 
L 132.339039 282.417785 
L 132.465261 282.417785 
L 134.358603 280.723498 
L 134.484825 280.723498 
L 134.611048 280.239416 
L 134.863494 280.239416 
L 135.242162 279.634313 
L 135.62083 279.634313 
L 135.747053 279.513293 
L 135.999498 279.029211 
L 136.125721 278.78717 
L 136.378167 278.78717 
L 136.630612 278.666149 
L 136.756835 278.666149 
L 137.892839 277.697985 
L 138.271508 277.697985 
L 138.39773 277.334923 
L 138.523953 277.334923 
L 138.650176 277.092882 
L 138.776399 277.092882 
L 139.912403 276.124718 
L 140.038626 276.124718 
L 140.543517 275.519616 
L 141.174631 274.309411 
L 141.427076 274.309411 
L 141.931967 273.704308 
L 142.184413 273.341247 
L 142.310635 273.341247 
L 142.563081 272.857165 
L 143.067972 272.857165 
L 143.320417 272.373083 
L 143.44664 272.373083 
L 143.699086 272.010021 
L 143.825308 271.76798 
L 143.951531 271.76798 
L 144.203977 271.404918 
L 144.330199 271.041857 
L 144.456422 271.041857 
L 144.582645 270.920836 
L 144.708868 270.557775 
L 144.83509 270.557775 
L 144.961313 270.194713 
L 145.466204 270.194713 
L 146.475986 269.34757 
L 146.728431 269.34757 
L 146.980877 269.105529 
L 147.1071 268.621447 
L 147.233322 268.621447 
L 147.485768 268.137365 
L 147.738213 268.137365 
L 148.116882 267.411242 
L 148.243104 267.411242 
L 148.49555 266.806139 
L 148.747995 266.685119 
L 149.126664 266.685119 
L 150.010223 265.111852 
L 150.262668 264.990831 
L 150.515114 264.990831 
L 150.641337 264.62777 
L 150.893782 264.62777 
L 151.020005 264.385729 
L 151.27245 264.385729 
L 151.398673 264.264708 
L 151.651118 263.780626 
L 151.903564 263.417565 
L 152.029787 263.417565 
L 152.282232 263.054503 
L 152.534678 263.054503 
L 152.6609 262.812462 
L 152.787123 262.812462 
L 153.039569 262.449401 
L 153.292014 261.844298 
L 153.418237 261.481237 
L 153.54446 261.481237 
L 153.923128 260.997155 
L 154.175573 260.513073 
L 154.93291 259.90797 
L 155.059133 259.90797 
L 155.185355 259.665929 
L 155.311578 259.665929 
L 155.942692 259.181847 
L 156.32136 258.092662 
L 156.447583 258.092662 
L 156.573805 257.850621 
L 156.700028 257.850621 
L 158.214701 256.277355 
L 158.593369 255.672252 
L 158.719592 255.672252 
L 159.09826 255.18817 
L 159.224483 254.825109 
L 159.350706 254.825109 
L 159.603151 254.583068 
L 159.729374 254.098985 
L 159.855597 254.098985 
L 160.108042 253.735924 
L 160.360488 253.735924 
L 160.486711 253.493883 
L 160.739156 253.493883 
L 161.117824 253.009801 
L 161.244047 252.76776 
L 161.622715 252.76776 
L 161.875161 252.646739 
L 162.001383 252.646739 
L 162.127606 252.404698 
L 162.253829 252.404698 
L 162.506274 251.920616 
L 162.75872 251.799596 
L 163.137388 251.799596 
L 163.389834 251.315514 
L 163.642279 251.315514 
L 163.894725 251.194493 
L 164.399616 251.194493 
L 165.53562 249.984288 
L 165.788066 249.621227 
L 165.914288 249.621227 
L 166.166734 249.137145 
L 166.671625 248.532042 
L 167.050293 247.684898 
L 168.060075 246.595714 
L 168.186298 246.353673 
L 168.438743 246.353673 
L 168.691189 245.869591 
L 168.943634 245.74857 
L 169.19608 245.74857 
L 169.953416 245.143468 
L 170.332085 245.143468 
L 171.846757 243.812242 
L 172.099203 243.812242 
L 173.36143 242.723058 
L 173.613876 242.723058 
L 173.992544 242.481017 
L 174.24499 242.481017 
L 174.749881 242.117955 
L 174.876103 242.117955 
L 175.380994 241.149791 
L 175.63344 240.423668 
L 175.759662 240.423668 
L 176.264553 240.060606 
L 176.390776 240.060606 
L 177.02189 239.576524 
L 177.148113 239.576524 
L 177.400558 239.213463 
L 179.041454 237.761217 
L 179.546345 237.761217 
L 179.79879 237.519176 
L 180.051236 237.035094 
L 180.303681 237.035094 
L 180.429904 236.793053 
L 180.556127 236.793053 
L 180.682349 236.429991 
L 180.808572 236.429991 
L 180.934795 236.18795 
L 181.061018 236.18795 
L 181.818354 235.461827 
L 182.197022 234.614683 
L 182.575691 234.130601 
L 183.206804 233.041417 
L 183.45925 233.041417 
L 184.8477 231.831212 
L 184.973923 231.831212 
L 185.478814 230.984068 
L 185.605036 230.984068 
L 185.857482 230.621007 
L 185.983705 230.621007 
L 186.23615 230.136924 
L 186.362373 230.136924 
L 187.372155 228.321617 
L 188.129491 227.716514 
L 188.255714 227.716514 
L 188.760605 226.385289 
L 189.139273 226.022227 
L 189.517942 225.175084 
L 190.022832 224.812022 
L 190.149055 224.812022 
L 190.401501 224.44896 
L 190.653946 223.843858 
L 190.780169 223.843858 
L 191.032614 223.601817 
L 191.28506 222.875694 
L 191.916174 222.149571 
L 192.168619 221.665489 
L 192.421065 220.818345 
L 192.925956 220.334263 
L 193.430847 219.003038 
L 193.557069 219.003038 
L 193.935738 218.760996 
L 194.188183 218.760996 
L 194.440629 218.155894 
L 194.566851 217.913853 
L 194.693074 217.913853 
L 195.324188 216.340586 
L 195.829079 215.735484 
L 196.33397 214.76732 
L 196.460192 214.76732 
L 196.712638 214.162217 
L 196.838861 214.041197 
L 197.091306 213.557115 
L 197.343752 213.194053 
L 197.469974 212.709971 
L 197.596197 212.709971 
L 197.848643 212.104868 
L 197.974865 212.104868 
L 198.479756 210.894663 
L 198.605979 210.894663 
L 198.732202 210.652622 
L 198.858425 210.652622 
L 199.237093 210.410581 
L 199.489538 209.684458 
L 199.741984 209.321397 
L 200.120652 208.837315 
L 200.373097 208.474253 
L 200.49932 208.353233 
L 200.751766 207.869151 
L 201.130434 207.143028 
L 201.382879 206.416904 
L 201.509102 206.416904 
L 201.761548 205.690781 
L 202.266439 205.085679 
L 202.518884 204.480576 
L 202.77133 204.359556 
L 203.149998 203.270371 
L 203.528666 202.786289 
L 203.781112 202.060166 
L 204.033557 201.697105 
L 204.15978 201.576084 
L 204.286003 200.970981 
L 204.412225 200.970981 
L 204.664671 200.60792 
L 204.790893 200.486899 
L 205.169562 199.397715 
L 205.295784 199.276694 
L 205.54823 198.429551 
L 206.053121 197.945469 
L 207.189126 194.798935 
L 207.315348 194.798935 
L 207.946462 193.104648 
L 208.072685 193.104648 
L 208.32513 192.499546 
L 208.451353 192.378525 
L 208.830021 191.410361 
L 209.082467 191.16832 
L 209.461135 190.079136 
L 209.587358 189.837095 
L 210.092249 188.142807 
L 210.218471 188.142807 
L 210.723362 187.295664 
L 210.975808 186.44852 
L 211.480699 185.964438 
L 212.238035 184.02811 
L 212.364258 183.786069 
L 212.490481 183.180966 
L 212.616704 183.180966 
L 213.37404 181.72872 
L 213.752708 180.639536 
L 215.014936 177.129941 
L 215.267381 176.766879 
L 215.393604 176.524838 
L 216.15094 173.983408 
L 216.782054 172.410141 
L 217.160722 171.562997 
L 217.665613 169.86871 
L 217.791836 169.86871 
L 218.044282 169.74769 
L 218.549173 168.053403 
L 218.675395 167.932382 
L 218.927841 166.964218 
L 219.180286 166.238095 
L 219.558954 165.390951 
L 220.063845 164.180746 
L 220.316291 164.180746 
L 220.821182 161.881357 
L 221.073627 161.518295 
L 221.452296 160.671152 
L 222.714523 157.282577 
L 222.840746 157.040536 
L 223.093191 156.193393 
L 223.345637 155.225229 
L 223.598082 154.620126 
L 223.850528 153.894003 
L 223.97675 153.772982 
L 224.355419 152.562777 
L 224.481641 152.441757 
L 224.607864 152.078695 
L 224.86031 151.110531 
L 226.122537 147.600936 
L 226.374983 146.390731 
L 226.501205 146.14869 
L 227.63721 142.033993 
L 228.015878 141.186849 
L 228.394547 140.097665 
L 228.646992 139.492562 
L 229.656774 135.982967 
L 230.161665 134.28868 
L 230.666556 132.715414 
L 230.792779 132.715414 
L 231.045224 132.110311 
L 231.29767 130.900106 
L 232.055006 129.44786 
L 232.938565 126.301327 
L 233.191011 125.817245 
L 233.569679 124.364998 
L 233.695902 124.122957 
L 234.327015 122.065609 
L 234.453238 122.065609 
L 234.705684 121.218465 
L 234.831906 121.097445 
L 235.084352 120.613363 
L 235.336797 120.250301 
L 235.589243 119.040096 
L 236.094134 118.071932 
L 236.346579 117.103768 
L 236.472802 116.861727 
L 236.599025 116.861727 
L 236.725248 116.619686 
L 236.85147 116.619686 
L 236.977693 116.498665 
L 237.230139 115.530501 
L 237.356361 115.409481 
L 237.861252 113.110091 
L 237.987475 112.989071 
L 238.366143 111.899886 
L 238.618589 110.56866 
L 238.871034 110.205599 
L 238.997257 110.084578 
L 239.628371 108.511312 
L 239.880816 107.422127 
L 240.133262 106.938045 
L 240.51193 105.364778 
L 240.764375 104.759676 
L 241.143044 103.670491 
L 241.269266 103.670491 
L 241.521712 103.30743 
L 241.774157 102.339266 
L 242.026603 101.855184 
L 242.531494 99.918855 
L 242.783939 99.071712 
L 243.036385 98.70865 
L 243.667498 97.014363 
L 243.919944 96.651302 
L 244.046167 96.409261 
L 244.424835 95.320076 
L 244.67728 94.957015 
L 244.929726 93.98885 
L 245.308394 93.625789 
L 245.434617 93.262727 
L 245.687062 92.415584 
L 245.813285 92.294563 
L 245.939508 91.689461 
L 246.065731 91.689461 
L 246.191953 91.56844 
L 246.318176 90.963338 
L 246.444399 90.963338 
L 246.696844 90.237215 
L 247.454181 89.632112 
L 247.706626 88.905989 
L 247.832849 88.663948 
L 247.959072 88.663948 
L 248.716408 87.937825 
L 249.221299 86.606599 
L 249.347522 86.606599 
L 249.72619 85.759456 
L 249.852413 85.517415 
L 250.104858 84.549251 
L 250.231081 84.30721 
L 250.483527 84.30721 
L 251.11464 83.823128 
L 251.240863 83.823128 
L 252.250645 82.00782 
L 252.376868 82.00782 
L 252.629313 81.281697 
L 252.755536 81.281697 
L 253.260427 80.192512 
L 253.639095 78.740266 
L 253.891541 78.619246 
L 254.017763 78.619246 
L 254.143986 78.498225 
L 254.7751 76.924958 
L 254.901323 76.924958 
L 255.532436 76.198835 
L 255.658659 75.956794 
L 255.784882 75.956794 
L 256.415996 75.230671 
L 256.542218 74.98863 
L 256.668441 74.98863 
L 257.425778 74.262507 
L 257.678223 73.173323 
L 259.319119 71.479036 
L 259.82401 70.631892 
L 260.202678 70.389851 
L 260.328901 70.389851 
L 260.455123 70.14781 
L 260.960014 70.14781 
L 261.21246 69.784748 
L 261.338683 69.784748 
L 261.717351 69.300666 
L 261.843574 69.058625 
L 262.348465 69.058625 
L 263.736915 67.84842 
L 263.98936 67.84842 
L 264.241806 67.7274 
L 264.368028 67.7274 
L 265.37781 66.880256 
L 265.504033 66.880256 
L 265.630256 66.638215 
L 265.756479 66.638215 
L 265.882701 66.396174 
L 266.008924 66.396174 
L 266.26137 66.275154 
L 266.387592 66.275154 
L 266.640038 66.154133 
L 266.766261 66.154133 
L 267.018706 65.42801 
L 267.397374 65.42801 
L 267.523597 65.306989 
L 267.776042 64.701887 
L 267.902265 64.701887 
L 268.280933 64.459846 
L 268.407156 64.459846 
L 268.659602 64.338825 
L 268.785824 64.338825 
L 269.03827 64.217805 
L 269.795606 64.217805 
L 270.174275 63.975764 
L 270.679166 63.975764 
L 271.057834 63.733723 
L 271.310279 63.733723 
L 271.688948 63.491682 
L 272.320061 63.491682 
L 272.698729 63.249641 
L 273.582289 63.249641 
L 273.834734 63.12862 
L 274.213402 63.12862 
L 274.465848 63.0076 
L 274.592071 63.0076 
L 274.718293 62.765559 
L 275.223184 62.765559 
L 275.728075 62.402497 
L 275.980521 62.402497 
L 276.232966 62.281477 
L 276.485412 62.281477 
L 276.990303 61.918415 
L 277.242748 61.918415 
L 277.495194 61.434333 
L 277.621416 61.434333 
L 278.000085 61.192292 
L 278.126307 61.192292 
L 278.631198 60.829231 
L 278.757421 60.829231 
L 279.262312 60.466169 
L 279.514758 60.466169 
L 279.767203 60.345149 
L 280.272094 60.345149 
L 280.52454 60.224128 
L 280.776985 60.224128 
L 281.029431 60.103108 
L 281.281876 60.103108 
L 281.534322 59.982087 
L 283.048994 59.982087 
L 283.30144 59.861067 
L 283.680108 59.861067 
L 283.932554 59.740046 
L 284.058776 59.740046 
L 284.311222 59.619026 
L 284.816113 59.619026 
L 284.942336 59.376984 
L 285.194781 59.376984 
L 285.447227 59.255964 
L 286.457009 59.255964 
L 286.709454 59.134943 
L 287.088122 59.134943 
L 287.845459 58.529841 
L 287.971681 58.529841 
L 288.224127 58.40882 
L 288.476572 58.40882 
L 288.729018 58.2878 
L 289.486354 58.2878 
L 289.7388 57.924738 
L 289.991245 57.803718 
L 290.622359 57.803718 
L 291.001027 57.561677 
L 291.758364 57.561677 
L 292.010809 57.440656 
L 293.020591 57.440656 
L 293.273037 57.319636 
L 293.651705 57.319636 
L 293.777928 57.077595 
L 294.156596 57.077595 
L 294.535264 56.835554 
L 297.817055 56.835554 
L 298.069501 56.714533 
L 298.826837 56.714533 
L 299.079283 56.593513 
L 299.457951 56.593513 
L 299.710397 56.472492 
L 301.856183 56.472492 
L 302.108629 56.351472 
L 302.361074 56.351472 
L 302.61352 56.230451 
L 302.739742 56.230451 
L 302.992188 56.109431 
L 303.370856 56.109431 
L 303.749524 55.86739 
L 304.128193 55.86739 
L 304.380638 55.746369 
L 305.011752 55.746369 
L 305.137975 55.504328 
L 306.526425 55.504328 
L 306.77887 55.383308 
L 308.041098 55.383308 
L 308.293543 55.262287 
L 309.555771 55.262287 
L 309.808216 55.141267 
L 310.060662 55.141267 
L 310.313107 55.020246 
L 315.235794 55.020246 
L 315.740685 54.657185 
L 319.022476 54.657185 
L 319.274922 54.536164 
L 321.799377 54.536164 
L 322.051822 54.415144 
L 334.295428 54.415144 
L 334.547874 54.294123 
L 334.800319 54.294123 
L 335.052765 54.173103 
L 339.849229 54.173103 
L 340.101674 54.052082 
L 350.95683 54.052082 
L 351.335499 53.810041 
L 354.491067 53.810041 
L 354.869735 53.568 
L 354.869735 53.568 
" clip-path="url(#p1d0782a2f0)" style="fill: none; stroke: #d62728; stroke-width: 1.5; stroke-linecap: square"/>
   </g>
   <g id="line2d_31">
    <path d="M 74.503436 295.124938 
L 75.373314 295.124938 
L 75.518294 294.640856 
L 75.953233 294.640856 
L 76.098213 293.672692 
L 76.533152 293.672692 
L 76.823112 292.704528 
L 76.968091 292.704528 
L 77.113071 292.220446 
L 77.54801 286.895544 
L 77.69299 286.411462 
L 77.83797 284.475134 
L 78.127929 275.277575 
L 78.417889 269.952672 
L 79.287767 236.066929 
L 79.577727 225.417125 
L 80.012666 203.149351 
L 80.447605 185.238315 
L 81.027524 162.970541 
L 81.317484 156.677475 
L 82.477322 117.950911 
L 82.767281 113.110091 
L 83.057241 104.880696 
L 83.63716 96.16722 
L 83.78214 95.199056 
L 84.072099 88.905989 
L 84.217079 88.421907 
L 84.652018 86.001497 
L 84.796998 83.581087 
L 84.941978 83.097005 
L 85.086957 81.644758 
L 85.231937 81.644758 
L 85.811856 79.70843 
L 85.956836 79.70843 
L 86.246795 78.740266 
L 86.536755 78.740266 
L 86.681735 78.256184 
L 86.826714 78.256184 
L 87.406633 76.319856 
L 87.551613 76.319856 
L 87.696593 74.383528 
L 88.131532 74.383528 
L 88.276512 73.899446 
L 88.421492 73.899446 
L 88.711451 72.931282 
L 88.856431 72.931282 
L 89.001411 72.4472 
L 89.29137 72.4472 
L 89.43635 71.963118 
L 89.58133 71.963118 
L 89.871289 70.994953 
L 90.306228 70.994953 
L 90.451208 70.510871 
L 90.741168 70.510871 
L 91.031127 69.542707 
L 91.466066 69.542707 
L 91.611046 69.058625 
L 91.901006 69.058625 
L 92.045985 68.574543 
L 92.480925 68.574543 
L 92.625904 68.090461 
L 92.915864 68.090461 
L 93.060844 67.606379 
L 93.350803 66.154133 
L 93.495783 65.670051 
L 93.785742 65.670051 
L 93.930722 64.701887 
L 94.075702 64.701887 
L 94.220682 62.765559 
L 94.94558 62.765559 
L 95.23554 61.797395 
L 95.38052 61.797395 
L 95.960439 59.861067 
L 96.395378 59.861067 
L 96.540358 59.376984 
L 97.265256 59.376984 
L 97.410236 58.40882 
L 97.990155 58.40882 
L 98.135135 57.924738 
L 99.729912 57.924738 
L 99.874892 57.440656 
L 102.774487 57.440656 
L 103.064446 56.472492 
L 104.659224 56.472492 
L 104.804203 55.98841 
L 105.819062 55.98841 
L 105.964041 55.504328 
L 107.558819 55.504328 
L 107.703798 55.020246 
L 107.848778 55.020246 
L 107.993758 54.536164 
L 109.298576 54.536164 
L 109.443555 54.052082 
L 146.703351 54.052082 
L 146.848331 53.568 
L 146.848331 53.568 
" clip-path="url(#p1d0782a2f0)" style="fill: none; stroke: #9467bd; stroke-width: 1.5; stroke-linecap: square"/>
   </g>
   <g id="line2d_32">
    <path d="M 75.925157 295.124938 
L 76.086467 295.124938 
L 76.247778 294.640856 
L 77.78023 294.640856 
L 77.941541 294.156774 
L 78.667439 294.156774 
L 78.909405 293.18861 
L 79.151371 293.18861 
L 79.312682 292.704528 
L 79.393337 292.704528 
L 79.554648 292.220446 
L 79.796614 292.220446 
L 79.957925 291.736364 
L 80.199891 291.736364 
L 80.441857 289.800036 
L 80.683823 289.800036 
L 80.92579 287.863708 
L 81.329066 285.92738 
L 81.490377 283.506969 
L 81.732343 281.086559 
L 81.812999 281.086559 
L 82.054965 279.150231 
L 82.216275 278.182067 
L 82.458242 276.245739 
L 82.619552 275.277575 
L 82.700208 275.277575 
L 82.942174 272.373083 
L 83.022829 272.373083 
L 83.264795 270.436754 
L 83.506761 268.500426 
L 83.587417 268.500426 
L 84.39397 255.430211 
L 84.474626 254.946129 
L 86.410355 218.155894 
L 86.652321 214.76732 
L 87.53953 196.856284 
L 88.023462 185.238315 
L 88.104117 184.270151 
L 88.426739 175.072592 
L 88.507394 174.104428 
L 89.636569 142.155014 
L 89.79788 139.734603 
L 90.120502 130.052962 
L 91.088366 114.562337 
L 91.169021 114.562337 
L 91.491643 109.721517 
L 91.814264 104.396614 
L 91.975575 102.944368 
L 92.701473 95.199056 
L 92.862784 93.746809 
L 93.10475 89.390071 
L 93.427372 86.969661 
L 93.749993 83.581087 
L 93.911304 83.581087 
L 94.072615 81.644758 
L 94.395236 78.740266 
L 94.475892 78.740266 
L 94.556547 78.256184 
L 94.717858 76.803938 
L 94.959824 75.835774 
L 95.040479 75.835774 
L 95.363101 73.415364 
L 95.605067 69.058625 
L 95.685722 69.058625 
L 95.766378 68.574543 
L 95.927688 66.638215 
L 96.008344 66.638215 
L 96.169654 66.154133 
L 96.572931 66.154133 
L 97.056863 63.733723 
L 97.540796 63.733723 
L 97.782762 61.797395 
L 97.863417 61.797395 
L 98.024728 60.829231 
L 98.266694 60.829231 
L 98.589315 59.376984 
L 98.831282 59.376984 
L 99.073248 58.40882 
L 99.55718 58.40882 
L 99.718491 57.924738 
L 101.089632 57.924738 
L 101.250943 57.440656 
L 101.896186 57.440656 
L 102.138152 56.472492 
L 102.541429 56.472492 
L 102.702739 55.98841 
L 103.186672 55.98841 
L 103.347982 55.504328 
L 104.235191 55.504328 
L 104.396502 55.020246 
L 113.913836 55.020246 
L 114.075146 54.536164 
L 115.849565 54.536164 
L 116.010875 54.052082 
L 116.091531 54.052082 
L 116.172186 53.568 
L 116.172186 53.568 
" clip-path="url(#p1d0782a2f0)" style="fill: none; stroke: #8c564b; stroke-width: 1.5; stroke-linecap: square"/>
   </g>
   <g id="line2d_33">
    <path d="M 91.043241 295.124938 
L 91.434212 295.124938 
L 91.629698 294.640856 
L 92.216155 294.640856 
L 92.411641 294.156774 
L 93.193584 294.156774 
L 93.389069 293.672692 
L 93.584555 293.672692 
L 93.780041 293.18861 
L 95.539412 293.18861 
L 95.734898 292.704528 
L 97.494269 292.704528 
L 97.689754 292.220446 
L 98.080726 292.220446 
L 98.276212 291.736364 
L 98.862669 291.736364 
L 99.449126 289.315954 
L 99.840097 288.34779 
L 100.231068 288.34779 
L 100.817525 286.895544 
L 101.794954 286.895544 
L 101.99044 286.411462 
L 102.772382 286.411462 
L 103.554325 284.475134 
L 103.749811 284.475134 
L 103.945296 283.506969 
L 104.140782 283.506969 
L 104.336268 283.022887 
L 104.531754 283.022887 
L 104.922725 282.054723 
L 105.118211 282.054723 
L 105.313696 281.570641 
L 105.509182 281.570641 
L 105.900153 280.118395 
L 106.095639 279.634313 
L 106.877582 279.634313 
L 107.268553 278.666149 
L 108.050496 278.666149 
L 108.245982 278.182067 
L 108.832439 278.182067 
L 109.027924 277.697985 
L 109.22341 277.697985 
L 109.418896 276.729821 
L 110.200838 276.729821 
L 110.396324 276.245739 
L 110.59181 276.245739 
L 110.787296 275.277575 
L 111.178267 275.277575 
L 111.373753 274.309411 
L 111.569238 274.309411 
L 111.96021 273.341247 
L 112.351181 273.341247 
L 112.742152 272.373083 
L 113.328609 272.373083 
L 113.524095 270.436754 
L 113.915066 270.436754 
L 114.306038 269.46859 
L 114.892495 269.46859 
L 115.087981 268.984508 
L 115.674438 266.564098 
L 115.869923 266.080016 
L 116.260895 266.080016 
L 116.651866 263.659606 
L 117.042837 262.691442 
L 117.238323 262.691442 
L 117.629295 261.723278 
L 118.020266 260.271032 
L 118.215752 259.786949 
L 118.411237 258.334703 
L 118.802209 258.334703 
L 119.584151 254.946129 
L 120.170608 253.493883 
L 120.56158 251.557555 
L 121.148037 246.716734 
L 121.343523 245.264488 
L 121.92998 243.812242 
L 122.125465 242.844078 
L 122.320951 240.90775 
L 122.711922 239.939586 
L 122.907408 238.971422 
L 123.102894 236.551012 
L 123.493865 235.582847 
L 123.884837 232.678355 
L 124.080322 232.194273 
L 124.471294 228.805699 
L 125.839693 221.544468 
L 126.817122 214.76732 
L 127.012608 214.283238 
L 127.403579 211.378745 
L 127.599065 210.894663 
L 127.79455 208.958335 
L 127.990036 205.569761 
L 128.185522 204.117515 
L 128.381007 203.633433 
L 128.771979 201.213023 
L 128.967464 197.340366 
L 129.16295 197.340366 
L 129.944893 192.015464 
L 130.335864 185.238315 
L 130.53135 185.238315 
L 130.726836 184.270151 
L 131.117807 180.397495 
L 131.313293 179.429331 
L 131.508778 177.493003 
L 131.704264 177.493003 
L 131.89975 177.00892 
L 132.290721 174.104428 
L 132.877178 165.390951 
L 133.26815 162.002377 
L 133.854607 154.741147 
L 134.245578 152.804818 
L 134.636549 149.900326 
L 134.832035 149.416244 
L 135.223006 146.995834 
L 136.004949 138.282357 
L 136.395921 134.409701 
L 136.591406 132.473373 
L 136.786892 128.116634 
L 136.982378 127.632552 
L 137.177863 123.759896 
L 137.373349 123.759896 
L 137.568835 123.275814 
L 137.76432 121.339486 
L 138.155292 115.530501 
L 138.546263 112.626009 
L 138.937234 107.301107 
L 139.13272 107.301107 
L 139.328206 104.396614 
L 139.523692 103.42845 
L 140.110149 98.58763 
L 140.305634 98.103548 
L 140.892091 94.230891 
L 141.087577 94.230891 
L 141.283063 93.746809 
L 141.478548 92.294563 
L 141.674034 92.294563 
L 141.86952 91.810481 
L 142.455977 87.453743 
L 142.651462 86.969661 
L 142.846948 85.517415 
L 143.433405 84.065169 
L 143.824377 81.644758 
L 144.410834 80.192512 
L 144.801805 78.740266 
L 144.997291 78.256184 
L 145.192776 78.256184 
L 145.583748 77.28802 
L 145.779233 77.28802 
L 145.974719 76.803938 
L 146.170205 76.803938 
L 146.561176 74.383528 
L 146.756662 73.899446 
L 147.147633 72.4472 
L 147.538605 72.4472 
L 148.125062 70.026789 
L 148.320547 69.542707 
L 149.10249 69.542707 
L 149.297976 68.090461 
L 149.493462 68.090461 
L 149.688947 67.606379 
L 149.884433 67.606379 
L 150.079919 67.122297 
L 150.47089 67.122297 
L 150.861861 66.154133 
L 151.252833 64.701887 
L 151.643804 63.733723 
L 153.989632 63.733723 
L 154.185118 63.249641 
L 154.576089 63.249641 
L 154.771575 62.765559 
L 154.967061 62.765559 
L 155.162546 61.797395 
L 156.726432 61.797395 
L 157.117403 60.829231 
L 158.094832 60.829231 
L 158.485803 59.861067 
L 158.876775 59.861067 
L 159.267746 58.892902 
L 159.854203 58.892902 
L 160.049689 58.40882 
L 164.154888 58.40882 
L 164.350374 57.924738 
L 166.500716 57.924738 
L 166.696202 57.440656 
L 167.087173 57.440656 
L 167.282659 56.956574 
L 167.67363 56.956574 
L 167.869116 56.472492 
L 169.433002 56.472492 
L 169.628487 55.98841 
L 173.342715 55.98841 
L 173.733687 55.020246 
L 182.921514 55.020246 
L 183.117 54.536164 
L 183.507971 54.536164 
L 183.703457 54.052082 
L 188.395113 54.052082 
L 188.590599 53.568 
L 188.590599 53.568 
" clip-path="url(#p1d0782a2f0)" style="fill: none; stroke: #e377c2; stroke-width: 1.5; stroke-linecap: square"/>
   </g>
   <g id="line2d_34">
    <path d="M 108.64962 295.124938 
L 110.972968 295.124938 
L 111.553805 294.640856 
L 116.781338 294.640856 
L 117.362175 294.156774 
L 118.523849 294.156774 
L 119.104686 293.18861 
L 121.428033 293.18861 
L 122.00887 292.704528 
L 122.589707 291.736364 
L 125.493892 291.736364 
L 126.074729 289.800036 
L 127.81724 289.800036 
L 128.398077 288.831872 
L 129.559751 287.863708 
L 130.140588 286.895544 
L 131.302262 285.92738 
L 131.883099 285.92738 
L 132.463936 284.959216 
L 133.044773 283.506969 
L 134.206447 282.538805 
L 134.787284 282.538805 
L 135.368121 282.054723 
L 135.948958 282.054723 
L 136.529795 281.086559 
L 137.110632 280.602477 
L 137.691469 280.602477 
L 138.272306 279.634313 
L 139.43398 279.634313 
L 140.014817 279.150231 
L 140.595654 279.150231 
L 141.757328 278.182067 
L 142.338165 278.182067 
L 142.919002 277.697985 
L 143.499839 275.761657 
L 144.080676 275.761657 
L 144.661513 274.309411 
L 145.24235 273.825329 
L 145.823187 273.825329 
L 146.984861 271.889001 
L 147.565698 271.889001 
L 148.146535 270.920836 
L 148.727372 270.920836 
L 150.469882 269.46859 
L 151.050719 268.500426 
L 151.631556 267.04818 
L 153.374067 265.595934 
L 155.116578 265.595934 
L 155.697415 264.143688 
L 156.278252 263.659606 
L 157.439926 263.659606 
L 158.020763 262.691442 
L 158.6016 262.20736 
L 159.182437 262.20736 
L 159.763274 261.239196 
L 160.344111 260.755114 
L 160.924948 259.302867 
L 161.505785 258.818785 
L 162.086622 257.850621 
L 162.667459 256.398375 
L 163.829133 256.398375 
L 164.40997 255.430211 
L 165.571644 255.430211 
L 166.152481 254.462047 
L 169.637503 254.462047 
L 170.21834 253.977965 
L 170.799177 252.525719 
L 171.380014 251.557555 
L 172.541688 251.557555 
L 173.122525 251.073473 
L 174.284199 251.073473 
L 174.865036 250.589391 
L 175.445873 249.621227 
L 176.02671 249.621227 
L 177.188384 247.684898 
L 178.350057 246.716734 
L 178.930894 244.780406 
L 179.511731 244.780406 
L 180.092568 243.812242 
L 180.673405 243.812242 
L 181.835079 242.844078 
L 182.415916 242.844078 
L 185.900938 239.939586 
L 187.643449 237.035094 
L 188.224286 237.035094 
L 188.805123 235.582847 
L 191.128471 235.582847 
L 191.709308 235.098765 
L 192.290145 233.646519 
L 192.870982 233.162437 
L 193.451819 231.710191 
L 194.032656 230.742027 
L 194.613493 229.289781 
L 195.19433 228.805699 
L 195.775167 227.353453 
L 196.356004 224.933043 
L 196.936841 224.933043 
L 197.517678 223.480796 
L 198.098515 222.512632 
L 199.260189 221.544468 
L 199.841026 219.60814 
L 201.0027 218.639976 
L 202.164374 218.639976 
L 202.745211 217.671812 
L 203.326048 217.18773 
L 203.906885 217.18773 
L 205.068559 216.219566 
L 205.649396 214.283238 
L 206.811069 213.315074 
L 207.391906 211.862827 
L 207.972743 210.894663 
L 208.55358 208.958335 
L 209.134417 208.474253 
L 209.715254 207.506089 
L 210.876928 207.506089 
L 212.038602 204.601597 
L 212.619439 203.633433 
L 213.200276 203.149351 
L 213.781113 202.181187 
L 214.36195 199.760776 
L 214.942787 199.760776 
L 215.523624 198.30853 
L 216.104461 195.88812 
L 217.846972 192.983628 
L 218.427809 191.531382 
L 219.008646 188.142807 
L 220.751157 183.786069 
L 221.331994 183.786069 
L 221.912831 183.301987 
L 223.074505 179.429331 
L 223.655342 178.945249 
L 224.817016 177.00892 
L 225.397853 177.00892 
L 225.97869 174.58851 
L 228.882875 164.906869 
L 229.463712 163.454623 
L 230.044549 160.066049 
L 230.625386 158.129721 
L 231.206223 155.709311 
L 231.78706 155.225229 
L 232.367897 152.320736 
L 232.948734 150.384408 
L 233.529571 149.416244 
L 234.110408 146.995834 
L 234.691245 146.02767 
L 235.272081 143.123178 
L 237.014592 140.218685 
L 237.595429 138.766439 
L 238.757103 134.893783 
L 239.33794 133.925619 
L 239.918777 131.989291 
L 240.499614 131.021127 
L 241.080451 130.537045 
L 241.661288 129.56888 
L 242.822962 129.56888 
L 243.403799 127.632552 
L 243.984636 127.632552 
L 244.565473 125.696224 
L 245.727147 122.791732 
L 246.307984 119.88724 
L 246.888821 118.434993 
L 247.469658 117.466829 
L 248.631332 116.498665 
L 249.212169 115.046419 
L 250.373843 114.078255 
L 250.95468 114.078255 
L 251.535517 113.594173 
L 252.116354 112.141927 
L 252.697191 111.657845 
L 253.278028 110.205599 
L 253.858865 108.269271 
L 254.439702 106.817025 
L 255.020539 104.396614 
L 255.601376 103.42845 
L 256.182213 101.976204 
L 256.76305 101.00804 
L 257.343887 99.555794 
L 259.086398 98.103548 
L 259.667235 97.135384 
L 260.248072 96.651302 
L 260.828909 95.199056 
L 261.409746 94.714973 
L 261.990583 94.714973 
L 263.733093 93.262727 
L 264.31393 91.810481 
L 266.056441 91.810481 
L 267.218115 89.874153 
L 267.798952 88.421907 
L 268.379789 87.453743 
L 268.960626 86.969661 
L 269.541463 85.517415 
L 270.1223 85.517415 
L 270.703137 85.033333 
L 271.864811 85.033333 
L 272.445648 84.065169 
L 273.026485 84.065169 
L 273.607322 83.581087 
L 274.188159 83.581087 
L 274.768996 83.097005 
L 276.511507 83.097005 
L 278.254018 81.644758 
L 278.834855 80.676594 
L 279.996529 80.676594 
L 281.158203 79.70843 
L 281.73904 79.70843 
L 282.319877 78.740266 
L 283.481551 78.740266 
L 284.643225 77.772102 
L 285.224062 77.772102 
L 286.385736 76.803938 
L 286.966573 76.803938 
L 287.54741 76.319856 
L 288.709084 76.319856 
L 289.289921 75.351692 
L 289.870758 75.351692 
L 291.613268 73.899446 
L 292.194105 73.899446 
L 293.355779 72.931282 
L 297.421638 72.931282 
L 298.002475 72.4472 
L 298.583312 72.4472 
L 299.744986 71.479036 
L 300.325823 71.479036 
L 300.90666 70.994953 
L 302.068334 70.994953 
L 302.649171 70.026789 
L 303.230008 69.542707 
L 303.810845 69.542707 
L 304.972519 68.574543 
L 310.200052 68.574543 
L 310.780889 68.090461 
L 311.361726 68.090461 
L 311.942563 67.606379 
L 316.589259 67.606379 
L 317.170096 67.122297 
L 318.912607 67.122297 
L 320.07428 66.154133 
L 322.397628 66.154133 
L 322.978465 65.670051 
L 324.140139 65.670051 
L 324.720976 64.701887 
L 327.044324 64.701887 
L 327.625161 64.217805 
L 328.786835 64.217805 
L 329.367672 63.733723 
L 331.69102 63.733723 
L 332.271857 63.249641 
L 332.852694 63.249641 
L 333.433531 62.765559 
L 335.756879 62.765559 
L 336.337716 62.281477 
L 339.241901 62.281477 
L 340.403575 61.313313 
L 341.565249 61.313313 
L 342.726923 60.345149 
L 347.373619 60.345149 
L 347.954456 59.861067 
L 349.696966 59.861067 
L 350.277803 59.376984 
L 351.439477 59.376984 
L 352.020314 58.892902 
L 356.086173 58.892902 
L 356.66701 58.40882 
L 357.828684 58.40882 
L 358.409521 57.440656 
L 358.990358 57.440656 
L 359.571195 56.956574 
L 362.47538 56.956574 
L 363.056217 56.472492 
L 367.702913 56.472492 
L 368.28375 55.98841 
L 380.481326 55.98841 
L 381.062163 55.504328 
L 383.966348 55.504328 
L 385.128022 54.536164 
L 396.163925 54.536164 
L 396.744762 54.052082 
L 397.906436 54.052082 
L 398.487273 53.568 
L 398.487273 53.568 
" clip-path="url(#p1d0782a2f0)" style="fill: none; stroke: #7f7f7f; stroke-width: 1.5; stroke-linecap: square"/>
   </g>
   <g id="patch_3">
    <path d="M 57.6 307.584 
L 57.6 41.472 
" style="fill: none; stroke: #000000; stroke-width: 0.8; stroke-linejoin: miter; stroke-linecap: square"/>
   </g>
   <g id="patch_4">
    <path d="M 414.72 307.584 
L 414.72 41.472 
" style="fill: none; stroke: #000000; stroke-width: 0.8; stroke-linejoin: miter; stroke-linecap: square"/>
   </g>
   <g id="patch_5">
    <path d="M 57.6 307.584 
L 414.72 307.584 
" style="fill: none; stroke: #000000; stroke-width: 0.8; stroke-linejoin: miter; stroke-linecap: square"/>
   </g>
   <g id="patch_6">
    <path d="M 57.6 41.472 
L 414.72 41.472 
" style="fill: none; stroke: #000000; stroke-width: 0.8; stroke-linejoin: miter; stroke-linecap: square"/>
   </g>
   <g id="text_16">
    <!-- Empirical Cumulative Distribution Function -->
    <g transform="translate(107.78625 35.472) scale(0.12 -0.12)">
     <defs>
      <path id="DejaVuSans-6d" d="M 3328 2828 
Q 3544 3216 3844 3400 
Q 4144 3584 4550 3584 
Q 5097 3584 5394 3201 
Q 5691 2819 5691 2113 
L 5691 0 
L 5113 0 
L 5113 2094 
Q 5113 2597 4934 2840 
Q 4756 3084 4391 3084 
Q 3944 3084 3684 2787 
Q 3425 2491 3425 1978 
L 3425 0 
L 2847 0 
L 2847 2094 
Q 2847 2600 2669 2842 
Q 2491 3084 2119 3084 
Q 1678 3084 1418 2786 
Q 1159 2488 1159 1978 
L 1159 0 
L 581 0 
L 581 3500 
L 1159 3500 
L 1159 2956 
Q 1356 3278 1631 3431 
Q 1906 3584 2284 3584 
Q 2666 3584 2933 3390 
Q 3200 3197 3328 2828 
z
" transform="scale(0.015625)"/>
      <path id="DejaVuSans-70" d="M 1159 525 
L 1159 -1331 
L 581 -1331 
L 581 3500 
L 1159 3500 
L 1159 2969 
Q 1341 3281 1617 3432 
Q 1894 3584 2278 3584 
Q 2916 3584 3314 3078 
Q 3713 2572 3713 1747 
Q 3713 922 3314 415 
Q 2916 -91 2278 -91 
Q 1894 -91 1617 61 
Q 1341 213 1159 525 
z
M 3116 1747 
Q 3116 2381 2855 2742 
Q 2594 3103 2138 3103 
Q 1681 3103 1420 2742 
Q 1159 2381 1159 1747 
Q 1159 1113 1420 752 
Q 1681 391 2138 391 
Q 2594 391 2855 752 
Q 3116 1113 3116 1747 
z
" transform="scale(0.015625)"/>
      <path id="DejaVuSans-69" d="M 603 3500 
L 1178 3500 
L 1178 0 
L 603 0 
L 603 3500 
z
M 603 4863 
L 1178 4863 
L 1178 4134 
L 603 4134 
L 603 4863 
z
" transform="scale(0.015625)"/>
      <path id="DejaVuSans-72" d="M 2631 2963 
Q 2534 3019 2420 3045 
Q 2306 3072 2169 3072 
Q 1681 3072 1420 2755 
Q 1159 2438 1159 1844 
L 1159 0 
L 581 0 
L 581 3500 
L 1159 3500 
L 1159 2956 
Q 1341 3275 1631 3429 
Q 1922 3584 2338 3584 
Q 2397 3584 2469 3576 
Q 2541 3569 2628 3553 
L 2631 2963 
z
" transform="scale(0.015625)"/>
      <path id="DejaVuSans-6c" d="M 603 4863 
L 1178 4863 
L 1178 0 
L 603 0 
L 603 4863 
z
" transform="scale(0.015625)"/>
      <path id="DejaVuSans-20" transform="scale(0.015625)"/>
      <path id="DejaVuSans-75" d="M 544 1381 
L 544 3500 
L 1119 3500 
L 1119 1403 
Q 1119 906 1312 657 
Q 1506 409 1894 409 
Q 2359 409 2629 706 
Q 2900 1003 2900 1516 
L 2900 3500 
L 3475 3500 
L 3475 0 
L 2900 0 
L 2900 538 
Q 2691 219 2414 64 
Q 2138 -91 1772 -91 
Q 1169 -91 856 284 
Q 544 659 544 1381 
z
M 1991 3584 
L 1991 3584 
z
" transform="scale(0.015625)"/>
      <path id="DejaVuSans-76" d="M 191 3500 
L 800 3500 
L 1894 563 
L 2988 3500 
L 3597 3500 
L 2284 0 
L 1503 0 
L 191 3500 
z
" transform="scale(0.015625)"/>
      <path id="DejaVuSans-73" d="M 2834 3397 
L 2834 2853 
Q 2591 2978 2328 3040 
Q 2066 3103 1784 3103 
Q 1356 3103 1142 2972 
Q 928 2841 928 2578 
Q 928 2378 1081 2264 
Q 1234 2150 1697 2047 
L 1894 2003 
Q 2506 1872 2764 1633 
Q 3022 1394 3022 966 
Q 3022 478 2636 193 
Q 2250 -91 1575 -91 
Q 1294 -91 989 -36 
Q 684 19 347 128 
L 347 722 
Q 666 556 975 473 
Q 1284 391 1588 391 
Q 1994 391 2212 530 
Q 2431 669 2431 922 
Q 2431 1156 2273 1281 
Q 2116 1406 1581 1522 
L 1381 1569 
Q 847 1681 609 1914 
Q 372 2147 372 2553 
Q 372 3047 722 3315 
Q 1072 3584 1716 3584 
Q 2034 3584 2315 3537 
Q 2597 3491 2834 3397 
z
" transform="scale(0.015625)"/>
      <path id="DejaVuSans-62" d="M 3116 1747 
Q 3116 2381 2855 2742 
Q 2594 3103 2138 3103 
Q 1681 3103 1420 2742 
Q 1159 2381 1159 1747 
Q 1159 1113 1420 752 
Q 1681 391 2138 391 
Q 2594 391 2855 752 
Q 3116 1113 3116 1747 
z
M 1159 2969 
Q 1341 3281 1617 3432 
Q 1894 3584 2278 3584 
Q 2916 3584 3314 3078 
Q 3713 2572 3713 1747 
Q 3713 922 3314 415 
Q 2916 -91 2278 -91 
Q 1894 -91 1617 61 
Q 1341 213 1159 525 
L 1159 0 
L 581 0 
L 581 4863 
L 1159 4863 
L 1159 2969 
z
" transform="scale(0.015625)"/>
      <path id="DejaVuSans-6f" d="M 1959 3097 
Q 1497 3097 1228 2736 
Q 959 2375 959 1747 
Q 959 1119 1226 758 
Q 1494 397 1959 397 
Q 2419 397 2687 759 
Q 2956 1122 2956 1747 
Q 2956 2369 2687 2733 
Q 2419 3097 1959 3097 
z
M 1959 3584 
Q 2709 3584 3137 3096 
Q 3566 2609 3566 1747 
Q 3566 888 3137 398 
Q 2709 -91 1959 -91 
Q 1206 -91 779 398 
Q 353 888 353 1747 
Q 353 2609 779 3096 
Q 1206 3584 1959 3584 
z
" transform="scale(0.015625)"/>
     </defs>
     <use xlink:href="#DejaVuSans-45"/>
     <use xlink:href="#DejaVuSans-6d" x="63.183594"/>
     <use xlink:href="#DejaVuSans-70" x="160.595703"/>
     <use xlink:href="#DejaVuSans-69" x="224.072266"/>
     <use xlink:href="#DejaVuSans-72" x="251.855469"/>
     <use xlink:href="#DejaVuSans-69" x="292.96875"/>
     <use xlink:href="#DejaVuSans-63" x="320.751953"/>
     <use xlink:href="#DejaVuSans-61" x="375.732422"/>
     <use xlink:href="#DejaVuSans-6c" x="437.011719"/>
     <use xlink:href="#DejaVuSans-20" x="464.794922"/>
     <use xlink:href="#DejaVuSans-43" x="496.582031"/>
     <use xlink:href="#DejaVuSans-75" x="566.40625"/>
     <use xlink:href="#DejaVuSans-6d" x="629.785156"/>
     <use xlink:href="#DejaVuSans-75" x="727.197266"/>
     <use xlink:href="#DejaVuSans-6c" x="790.576172"/>
     <use xlink:href="#DejaVuSans-61" x="818.359375"/>
     <use xlink:href="#DejaVuSans-74" x="879.638672"/>
     <use xlink:href="#DejaVuSans-69" x="918.847656"/>
     <use xlink:href="#DejaVuSans-76" x="946.630859"/>
     <use xlink:href="#DejaVuSans-65" x="1005.810547"/>
     <use xlink:href="#DejaVuSans-20" x="1067.333984"/>
     <use xlink:href="#DejaVuSans-44" x="1099.121094"/>
     <use xlink:href="#DejaVuSans-69" x="1176.123047"/>
     <use xlink:href="#DejaVuSans-73" x="1203.90625"/>
     <use xlink:href="#DejaVuSans-74" x="1256.005859"/>
     <use xlink:href="#DejaVuSans-72" x="1295.214844"/>
     <use xlink:href="#DejaVuSans-69" x="1336.328125"/>
     <use xlink:href="#DejaVuSans-62" x="1364.111328"/>
     <use xlink:href="#DejaVuSans-75" x="1427.587891"/>
     <use xlink:href="#DejaVuSans-74" x="1490.966797"/>
     <use xlink:href="#DejaVuSans-69" x="1530.175781"/>
     <use xlink:href="#DejaVuSans-6f" x="1557.958984"/>
     <use xlink:href="#DejaVuSans-6e" x="1619.140625"/>
     <use xlink:href="#DejaVuSans-20" x="1682.519531"/>
     <use xlink:href="#DejaVuSans-46" x="1714.306641"/>
     <use xlink:href="#DejaVuSans-75" x="1766.326172"/>
     <use xlink:href="#DejaVuSans-6e" x="1829.705078"/>
     <use xlink:href="#DejaVuSans-63" x="1893.083984"/>
     <use xlink:href="#DejaVuSans-74" x="1948.064453"/>
     <use xlink:href="#DejaVuSans-69" x="1987.273438"/>
     <use xlink:href="#DejaVuSans-6f" x="2015.056641"/>
     <use xlink:href="#DejaVuSans-6e" x="2076.238281"/>
    </g>
   </g>
   <g id="legend_1">
    <g id="patch_7">
     <path d="M 260.684063 302.584 
L 407.72 302.584 
Q 409.72 302.584 409.72 300.584 
L 409.72 181.934 
Q 409.72 179.934 407.72 179.934 
L 260.684063 179.934 
Q 258.684063 179.934 258.684063 181.934 
L 258.684063 300.584 
Q 258.684063 302.584 260.684063 302.584 
z
" style="fill: #ffffff; opacity: 0.8; stroke: #cccccc; stroke-linejoin: miter"/>
    </g>
    <g id="line2d_35">
     <path d="M 262.684063 188.032437 
L 272.684063 188.032437 
L 282.684063 188.032437 
" style="fill: none; stroke: #1f77b4; stroke-width: 1.5; stroke-linecap: square"/>
    </g>
    <g id="text_17">
     <!-- put_1024_1_2000.csv -->
     <g transform="translate(290.684063 191.532437) scale(0.1 -0.1)">
      <defs>
       <path id="DejaVuSans-5f" d="M 3263 -1063 
L 3263 -1509 
L -63 -1509 
L -63 -1063 
L 3263 -1063 
z
" transform="scale(0.015625)"/>
      </defs>
      <use xlink:href="#DejaVuSans-70"/>
      <use xlink:href="#DejaVuSans-75" x="63.476562"/>
      <use xlink:href="#DejaVuSans-74" x="126.855469"/>
      <use xlink:href="#DejaVuSans-5f" x="166.064453"/>
      <use xlink:href="#DejaVuSans-31" x="216.064453"/>
      <use xlink:href="#DejaVuSans-30" x="279.6875"/>
      <use xlink:href="#DejaVuSans-32" x="343.310547"/>
      <use xlink:href="#DejaVuSans-34" x="406.933594"/>
      <use xlink:href="#DejaVuSans-5f" x="470.556641"/>
      <use xlink:href="#DejaVuSans-31" x="520.556641"/>
      <use xlink:href="#DejaVuSans-5f" x="584.179688"/>
      <use xlink:href="#DejaVuSans-32" x="634.179688"/>
      <use xlink:href="#DejaVuSans-30" x="697.802734"/>
      <use xlink:href="#DejaVuSans-30" x="761.425781"/>
      <use xlink:href="#DejaVuSans-30" x="825.048828"/>
      <use xlink:href="#DejaVuSans-2e" x="888.671875"/>
      <use xlink:href="#DejaVuSans-63" x="920.458984"/>
      <use xlink:href="#DejaVuSans-73" x="975.439453"/>
      <use xlink:href="#DejaVuSans-76" x="1027.539062"/>
     </g>
    </g>
    <g id="line2d_36">
     <path d="M 262.684063 202.988687 
L 272.684063 202.988687 
L 282.684063 202.988687 
" style="fill: none; stroke: #ff7f0e; stroke-width: 1.5; stroke-linecap: square"/>
    </g>
    <g id="text_18">
     <!-- put_1024_2_2000.csv -->
     <g transform="translate(290.684063 206.488687) scale(0.1 -0.1)">
      <use xlink:href="#DejaVuSans-70"/>
      <use xlink:href="#DejaVuSans-75" x="63.476562"/>
      <use xlink:href="#DejaVuSans-74" x="126.855469"/>
      <use xlink:href="#DejaVuSans-5f" x="166.064453"/>
      <use xlink:href="#DejaVuSans-31" x="216.064453"/>
      <use xlink:href="#DejaVuSans-30" x="279.6875"/>
      <use xlink:href="#DejaVuSans-32" x="343.310547"/>
      <use xlink:href="#DejaVuSans-34" x="406.933594"/>
      <use xlink:href="#DejaVuSans-5f" x="470.556641"/>
      <use xlink:href="#DejaVuSans-32" x="520.556641"/>
      <use xlink:href="#DejaVuSans-5f" x="584.179688"/>
      <use xlink:href="#DejaVuSans-32" x="634.179688"/>
      <use xlink:href="#DejaVuSans-30" x="697.802734"/>
      <use xlink:href="#DejaVuSans-30" x="761.425781"/>
      <use xlink:href="#DejaVuSans-30" x="825.048828"/>
      <use xlink:href="#DejaVuSans-2e" x="888.671875"/>
      <use xlink:href="#DejaVuSans-63" x="920.458984"/>
      <use xlink:href="#DejaVuSans-73" x="975.439453"/>
      <use xlink:href="#DejaVuSans-76" x="1027.539062"/>
     </g>
    </g>
    <g id="line2d_37">
     <path d="M 262.684063 217.944937 
L 272.684063 217.944937 
L 282.684063 217.944937 
" style="fill: none; stroke: #2ca02c; stroke-width: 1.5; stroke-linecap: square"/>
    </g>
    <g id="text_19">
     <!-- put_1024_5_2000.csv -->
     <g transform="translate(290.684063 221.444937) scale(0.1 -0.1)">
      <defs>
       <path id="DejaVuSans-35" d="M 691 4666 
L 3169 4666 
L 3169 4134 
L 1269 4134 
L 1269 2991 
Q 1406 3038 1543 3061 
Q 1681 3084 1819 3084 
Q 2600 3084 3056 2656 
Q 3513 2228 3513 1497 
Q 3513 744 3044 326 
Q 2575 -91 1722 -91 
Q 1428 -91 1123 -41 
Q 819 9 494 109 
L 494 744 
Q 775 591 1075 516 
Q 1375 441 1709 441 
Q 2250 441 2565 725 
Q 2881 1009 2881 1497 
Q 2881 1984 2565 2268 
Q 2250 2553 1709 2553 
Q 1456 2553 1204 2497 
Q 953 2441 691 2322 
L 691 4666 
z
" transform="scale(0.015625)"/>
      </defs>
      <use xlink:href="#DejaVuSans-70"/>
      <use xlink:href="#DejaVuSans-75" x="63.476562"/>
      <use xlink:href="#DejaVuSans-74" x="126.855469"/>
      <use xlink:href="#DejaVuSans-5f" x="166.064453"/>
      <use xlink:href="#DejaVuSans-31" x="216.064453"/>
      <use xlink:href="#DejaVuSans-30" x="279.6875"/>
      <use xlink:href="#DejaVuSans-32" x="343.310547"/>
      <use xlink:href="#DejaVuSans-34" x="406.933594"/>
      <use xlink:href="#DejaVuSans-5f" x="470.556641"/>
      <use xlink:href="#DejaVuSans-35" x="520.556641"/>
      <use xlink:href="#DejaVuSans-5f" x="584.179688"/>
      <use xlink:href="#DejaVuSans-32" x="634.179688"/>
      <use xlink:href="#DejaVuSans-30" x="697.802734"/>
      <use xlink:href="#DejaVuSans-30" x="761.425781"/>
      <use xlink:href="#DejaVuSans-30" x="825.048828"/>
      <use xlink:href="#DejaVuSans-2e" x="888.671875"/>
      <use xlink:href="#DejaVuSans-63" x="920.458984"/>
      <use xlink:href="#DejaVuSans-73" x="975.439453"/>
      <use xlink:href="#DejaVuSans-76" x="1027.539062"/>
     </g>
    </g>
    <g id="line2d_38">
     <path d="M 262.684063 232.901187 
L 272.684063 232.901187 
L 282.684063 232.901187 
" style="fill: none; stroke: #d62728; stroke-width: 1.5; stroke-linecap: square"/>
    </g>
    <g id="text_20">
     <!-- put_1024_10_2000.csv -->
     <g transform="translate(290.684063 236.401187) scale(0.1 -0.1)">
      <use xlink:href="#DejaVuSans-70"/>
      <use xlink:href="#DejaVuSans-75" x="63.476562"/>
      <use xlink:href="#DejaVuSans-74" x="126.855469"/>
      <use xlink:href="#DejaVuSans-5f" x="166.064453"/>
      <use xlink:href="#DejaVuSans-31" x="216.064453"/>
      <use xlink:href="#DejaVuSans-30" x="279.6875"/>
      <use xlink:href="#DejaVuSans-32" x="343.310547"/>
      <use xlink:href="#DejaVuSans-34" x="406.933594"/>
      <use xlink:href="#DejaVuSans-5f" x="470.556641"/>
      <use xlink:href="#DejaVuSans-31" x="520.556641"/>
      <use xlink:href="#DejaVuSans-30" x="584.179688"/>
      <use xlink:href="#DejaVuSans-5f" x="647.802734"/>
      <use xlink:href="#DejaVuSans-32" x="697.802734"/>
      <use xlink:href="#DejaVuSans-30" x="761.425781"/>
      <use xlink:href="#DejaVuSans-30" x="825.048828"/>
      <use xlink:href="#DejaVuSans-30" x="888.671875"/>
      <use xlink:href="#DejaVuSans-2e" x="952.294922"/>
      <use xlink:href="#DejaVuSans-63" x="984.082031"/>
      <use xlink:href="#DejaVuSans-73" x="1039.0625"/>
      <use xlink:href="#DejaVuSans-76" x="1091.162109"/>
     </g>
    </g>
    <g id="line2d_39">
     <path d="M 262.684063 247.857438 
L 272.684063 247.857438 
L 282.684063 247.857438 
" style="fill: none; stroke: #9467bd; stroke-width: 1.5; stroke-linecap: square"/>
    </g>
    <g id="text_21">
     <!-- put_4096_1_500.csv -->
     <g transform="translate(290.684063 251.357438) scale(0.1 -0.1)">
      <defs>
       <path id="DejaVuSans-39" d="M 703 97 
L 703 672 
Q 941 559 1184 500 
Q 1428 441 1663 441 
Q 2288 441 2617 861 
Q 2947 1281 2994 2138 
Q 2813 1869 2534 1725 
Q 2256 1581 1919 1581 
Q 1219 1581 811 2004 
Q 403 2428 403 3163 
Q 403 3881 828 4315 
Q 1253 4750 1959 4750 
Q 2769 4750 3195 4129 
Q 3622 3509 3622 2328 
Q 3622 1225 3098 567 
Q 2575 -91 1691 -91 
Q 1453 -91 1209 -44 
Q 966 3 703 97 
z
M 1959 2075 
Q 2384 2075 2632 2365 
Q 2881 2656 2881 3163 
Q 2881 3666 2632 3958 
Q 2384 4250 1959 4250 
Q 1534 4250 1286 3958 
Q 1038 3666 1038 3163 
Q 1038 2656 1286 2365 
Q 1534 2075 1959 2075 
z
" transform="scale(0.015625)"/>
      </defs>
      <use xlink:href="#DejaVuSans-70"/>
      <use xlink:href="#DejaVuSans-75" x="63.476562"/>
      <use xlink:href="#DejaVuSans-74" x="126.855469"/>
      <use xlink:href="#DejaVuSans-5f" x="166.064453"/>
      <use xlink:href="#DejaVuSans-34" x="216.064453"/>
      <use xlink:href="#DejaVuSans-30" x="279.6875"/>
      <use xlink:href="#DejaVuSans-39" x="343.310547"/>
      <use xlink:href="#DejaVuSans-36" x="406.933594"/>
      <use xlink:href="#DejaVuSans-5f" x="470.556641"/>
      <use xlink:href="#DejaVuSans-31" x="520.556641"/>
      <use xlink:href="#DejaVuSans-5f" x="584.179688"/>
      <use xlink:href="#DejaVuSans-35" x="634.179688"/>
      <use xlink:href="#DejaVuSans-30" x="697.802734"/>
      <use xlink:href="#DejaVuSans-30" x="761.425781"/>
      <use xlink:href="#DejaVuSans-2e" x="825.048828"/>
      <use xlink:href="#DejaVuSans-63" x="856.835938"/>
      <use xlink:href="#DejaVuSans-73" x="911.816406"/>
      <use xlink:href="#DejaVuSans-76" x="963.916016"/>
     </g>
    </g>
    <g id="line2d_40">
     <path d="M 262.684063 262.813688 
L 272.684063 262.813688 
L 282.684063 262.813688 
" style="fill: none; stroke: #8c564b; stroke-width: 1.5; stroke-linecap: square"/>
    </g>
    <g id="text_22">
     <!-- put_4096_2_500.csv -->
     <g transform="translate(290.684063 266.313688) scale(0.1 -0.1)">
      <use xlink:href="#DejaVuSans-70"/>
      <use xlink:href="#DejaVuSans-75" x="63.476562"/>
      <use xlink:href="#DejaVuSans-74" x="126.855469"/>
      <use xlink:href="#DejaVuSans-5f" x="166.064453"/>
      <use xlink:href="#DejaVuSans-34" x="216.064453"/>
      <use xlink:href="#DejaVuSans-30" x="279.6875"/>
      <use xlink:href="#DejaVuSans-39" x="343.310547"/>
      <use xlink:href="#DejaVuSans-36" x="406.933594"/>
      <use xlink:href="#DejaVuSans-5f" x="470.556641"/>
      <use xlink:href="#DejaVuSans-32" x="520.556641"/>
      <use xlink:href="#DejaVuSans-5f" x="584.179688"/>
      <use xlink:href="#DejaVuSans-35" x="634.179688"/>
      <use xlink:href="#DejaVuSans-30" x="697.802734"/>
      <use xlink:href="#DejaVuSans-30" x="761.425781"/>
      <use xlink:href="#DejaVuSans-2e" x="825.048828"/>
      <use xlink:href="#DejaVuSans-63" x="856.835938"/>
      <use xlink:href="#DejaVuSans-73" x="911.816406"/>
      <use xlink:href="#DejaVuSans-76" x="963.916016"/>
     </g>
    </g>
    <g id="line2d_41">
     <path d="M 262.684063 277.769937 
L 272.684063 277.769937 
L 282.684063 277.769937 
" style="fill: none; stroke: #e377c2; stroke-width: 1.5; stroke-linecap: square"/>
    </g>
    <g id="text_23">
     <!-- put_4096_5_500.csv -->
     <g transform="translate(290.684063 281.269937) scale(0.1 -0.1)">
      <use xlink:href="#DejaVuSans-70"/>
      <use xlink:href="#DejaVuSans-75" x="63.476562"/>
      <use xlink:href="#DejaVuSans-74" x="126.855469"/>
      <use xlink:href="#DejaVuSans-5f" x="166.064453"/>
      <use xlink:href="#DejaVuSans-34" x="216.064453"/>
      <use xlink:href="#DejaVuSans-30" x="279.6875"/>
      <use xlink:href="#DejaVuSans-39" x="343.310547"/>
      <use xlink:href="#DejaVuSans-36" x="406.933594"/>
      <use xlink:href="#DejaVuSans-5f" x="470.556641"/>
      <use xlink:href="#DejaVuSans-35" x="520.556641"/>
      <use xlink:href="#DejaVuSans-5f" x="584.179688"/>
      <use xlink:href="#DejaVuSans-35" x="634.179688"/>
      <use xlink:href="#DejaVuSans-30" x="697.802734"/>
      <use xlink:href="#DejaVuSans-30" x="761.425781"/>
      <use xlink:href="#DejaVuSans-2e" x="825.048828"/>
      <use xlink:href="#DejaVuSans-63" x="856.835938"/>
      <use xlink:href="#DejaVuSans-73" x="911.816406"/>
      <use xlink:href="#DejaVuSans-76" x="963.916016"/>
     </g>
    </g>
    <g id="line2d_42">
     <path d="M 262.684063 292.726187 
L 272.684063 292.726187 
L 282.684063 292.726187 
" style="fill: none; stroke: #7f7f7f; stroke-width: 1.5; stroke-linecap: square"/>
    </g>
    <g id="text_24">
     <!-- put_4096_10_500.csv -->
     <g transform="translate(290.684063 296.226187) scale(0.1 -0.1)">
      <use xlink:href="#DejaVuSans-70"/>
      <use xlink:href="#DejaVuSans-75" x="63.476562"/>
      <use xlink:href="#DejaVuSans-74" x="126.855469"/>
      <use xlink:href="#DejaVuSans-5f" x="166.064453"/>
      <use xlink:href="#DejaVuSans-34" x="216.064453"/>
      <use xlink:href="#DejaVuSans-30" x="279.6875"/>
      <use xlink:href="#DejaVuSans-39" x="343.310547"/>
      <use xlink:href="#DejaVuSans-36" x="406.933594"/>
      <use xlink:href="#DejaVuSans-5f" x="470.556641"/>
      <use xlink:href="#DejaVuSans-31" x="520.556641"/>
      <use xlink:href="#DejaVuSans-30" x="584.179688"/>
      <use xlink:href="#DejaVuSans-5f" x="647.802734"/>
      <use xlink:href="#DejaVuSans-35" x="697.802734"/>
      <use xlink:href="#DejaVuSans-30" x="761.425781"/>
      <use xlink:href="#DejaVuSans-30" x="825.048828"/>
      <use xlink:href="#DejaVuSans-2e" x="888.671875"/>
      <use xlink:href="#DejaVuSans-63" x="920.458984"/>
      <use xlink:href="#DejaVuSans-73" x="975.439453"/>
      <use xlink:href="#DejaVuSans-76" x="1027.539062"/>
     </g>
    </g>
   </g>
  </g>
 </g>
 <defs>
  <clipPath id="p1d0782a2f0">
   <rect x="57.6" y="41.472" width="357.12" height="266.112"/>
  </clipPath>
 </defs>
</svg>
